<?xml version="1.0" encoding="utf-8"?>
<!-- Generator: Adobe Illustrator 19.1.0, SVG Export Plug-In . SVG Version: 6.00 Build 0)  -->
<svg version="1.1" id="Layer_1" xmlns="http://www.w3.org/2000/svg" xmlns:xlink="http://www.w3.org/1999/xlink" x="0px" y="0px"
	 viewBox="-197 320.9 200 200" style="enable-background:new -197 320.9 200 200;" xml:space="preserve">
<style type="text/css">
	.st0{fill:#222222;}
	.st1{fill:none;}
	.st2{fill:#FFFFFF;}
</style>
<g>
	
		<rect x="-130" y="349.9" transform="matrix(-0.8983 0.4395 -0.4395 -0.8983 -92.5186 721.8117)" class="st0" width="0.3" height="0.6"/>
	<polygon class="st0" points="-119.8,346.4 -119.3,346.2 -119.5,345.7 -119.9,345.8 	"/>
	
		<rect x="-20.8" y="398.8" transform="matrix(-0.2734 -0.9619 0.9619 -0.2734 -409.9901 488.4597)" class="st0" width="0.6" height="0.6"/>
	
		<rect x="-21.5" y="396.7" transform="matrix(-0.3015 -0.9535 0.9535 -0.3015 -406.0757 496.5051)" class="st0" width="0.6" height="0.6"/>
	
		<rect x="-128.1" y="348.9" transform="matrix(0.4173 0.9088 -0.9088 0.4173 242.8359 319.6607)" class="st0" width="0.6" height="0.6"/>
	
		<rect x="-132.2" y="350.9" transform="matrix(-0.8855 0.4647 -0.4647 -0.8855 -85.5067 723.4276)" class="st0" width="0.6" height="0.6"/>
	
		<rect x="-124.1" y="347.2" transform="matrix(0.3629 0.9318 -0.9318 0.3629 244.9574 336.7422)" class="st0" width="0.6" height="0.6"/>
	
		<rect x="-19.7" y="403.1" transform="matrix(-0.2182 -0.9759 0.9759 -0.2182 -417.2867 472.518)" class="st0" width="0.6" height="0.6"/>
	
		<rect x="-18.8" y="407.5" transform="matrix(-0.1618 -0.9868 0.9868 -0.1618 -423.9926 455.5641)" class="st0" width="0.6" height="0.6"/>
	
		<rect x="-20.3" y="401" transform="matrix(-0.2461 -0.9692 0.9692 -0.2461 -413.8132 480.6739)" class="st0" width="0.6" height="0.6"/>
	
		<rect x="-22.2" y="394.6" transform="matrix(-0.3286 -0.9445 0.9445 -0.3286 -402.0479 503.9654)" class="st0" width="0.6" height="0.6"/>
	
		<rect x="-18.5" y="409.7" transform="matrix(0.9915 -0.1301 0.1301 0.9915 -53.5022 1.1121)" class="st0" width="0.6" height="0.6"/>
	
		<rect x="-126.1" y="348" transform="matrix(0.3901 0.9208 -0.9208 0.3901 243.9177 328.2609)" class="st0" width="0.6" height="0.6"/>
	
		<rect x="-121.9" y="346.4" transform="matrix(0.3354 0.9421 -0.9421 0.3354 245.7936 344.9935)" class="st0" width="0.6" height="0.6"/>
	
		<rect x="-28.7" y="380.4" transform="matrix(-0.5091 -0.8607 0.8607 -0.5091 -370.5669 550.0148)" class="st0" width="0.6" height="0.6"/>
	
		<rect x="-29.9" y="378.5" transform="matrix(-0.5329 -0.8462 0.8462 -0.5329 -365.9149 555.5184)" class="st0" width="0.6" height="0.6"/>
	
		<rect x="-33.4" y="373.1" transform="matrix(-0.6035 -0.7974 0.7974 -0.6035 -351.1867 572.1362)" class="st0" width="0.2" height="0.6"/>
	
		<rect x="-32.4" y="374.7" transform="matrix(-0.5813 -0.8137 0.8137 -0.5813 -356.0001 566.9045)" class="st0" width="0.6" height="0.6"/>
	
		<rect x="-136.1" y="353" transform="matrix(0.5184 0.8552 -0.8552 0.5184 236.7485 286.3394)" class="st0" width="0.6" height="0.6"/>
	
		<rect x="-31.1" y="376.6" transform="matrix(-0.5572 -0.8304 0.8304 -0.5572 -360.9653 561.2867)" class="st0" width="0.6" height="0.6"/>
	
		<rect x="-26.6" y="384.3" transform="matrix(-0.4599 -0.888 0.888 -0.4599 -379.8643 538.1956)" class="st0" width="0.6" height="0.6"/>
	
		<rect x="-134.2" y="351.9" transform="matrix(0.4926 0.8703 -0.8703 0.4926 238.6268 295.226)" class="st0" width="0.6" height="0.6"/>
	
		<rect x="-23.8" y="390.4" transform="matrix(-0.3819 -0.9242 0.9242 -0.3819 -393.4805 518.2155)" class="st0" width="0.6" height="0.6"/>
	
		<rect x="-25.5" y="386.3" transform="matrix(-0.4338 -0.901 0.901 -0.4338 -384.5398 531.5903)" class="st0" width="0.6" height="0.6"/>
	
		<rect x="-24.6" y="388.3" transform="matrix(-0.4082 -0.9129 0.9129 -0.4082 -388.9767 525.0379)" class="st0" width="0.6" height="0.6"/>
	
		<rect x="-23" y="392.5" transform="matrix(-0.3548 -0.9349 0.9349 -0.3548 -397.9121 510.9152)" class="st0" width="0.6" height="0.6"/>
	<polygon class="st0" points="-27.7,382.5 -27.4,383 -26.9,382.7 -27.2,382.2 	"/>
	
		<rect x="-46.1" y="360" transform="matrix(-0.7686 -0.6397 0.6397 -0.7686 -311.4699 607.8698)" class="st0" width="0.6" height="0.6"/>
	
		<rect x="-119.7" y="494.5" transform="matrix(0.9534 0.3016 -0.3016 0.9534 143.6916 59.0435)" class="st0" width="0.6" height="0.6"/>
	
		<rect x="-117.5" y="495.2" transform="matrix(0.9617 0.2741 -0.2741 0.9617 131.3396 51.1033)" class="st0" width="0.6" height="0.6"/>
	
		<rect x="-115.3" y="495.8" transform="matrix(-0.2499 0.9683 -0.9683 -0.2499 336.5517 731.3982)" class="st0" width="0.6" height="0.6"/>
	<path class="st0" d="M-140,355.7l0.3,0.5c0.2-0.1,0.3-0.2,0.5-0.3l-0.3-0.5C-139.7,355.5-139.8,355.6-140,355.7z"/>
	
		<rect x="-121.8" y="493.8" transform="matrix(0.9445 0.3284 -0.3284 0.9445 155.5364 67.3151)" class="st0" width="0.6" height="0.6"/>
	
		<rect x="-47.8" y="358.6" transform="matrix(-0.7866 -0.6174 0.6174 -0.7866 -306.4961 611.8666)" class="st0" width="0.6" height="0.6"/>
	
		<rect x="-18.2" y="427.6" transform="matrix(0.9948 0.1018 -0.1018 0.9948 43.4679 4.0472)" class="st0" width="0.6" height="0.6"/>
	
		<rect x="-38" y="367.8" transform="matrix(-0.6701 -0.7423 0.7423 -0.6701 -336.2361 586.7002)" class="st0" width="0.6" height="0.6"/>
	
		<rect x="-36.5" y="369.5" transform="matrix(-0.6488 -0.761 0.761 -0.6488 -341.1586 582.103)" class="st0" width="0.6" height="0.6"/>
	
		<rect x="-35.1" y="371.2" transform="matrix(-0.6268 -0.7792 0.7792 -0.6268 -346.1057 577.1637)" class="st0" width="0.6" height="0.6"/>
	
		<rect x="-51.4" y="355.9" transform="matrix(0.8213 0.5704 -0.5704 0.8213 194.0464 92.8069)" class="st0" width="0.5" height="0.6"/>
	
		<rect x="-41.1" y="364.5" transform="matrix(0.7057 -0.7085 0.7085 0.7057 -270.4593 78.4716)" class="st0" width="0.6" height="0.6"/>
	
		<rect x="-39.5" y="366.1" transform="matrix(-0.6908 -0.723 0.723 -0.6908 -331.1867 591.1701)" class="st0" width="0.6" height="0.6"/>
	
		<rect x="-123.9" y="493.1" transform="matrix(0.9345 0.3559 -0.3559 0.9345 167.5031 76.3101)" class="st0" width="0.6" height="0.6"/>
	
		<rect x="-18.1" y="414.2" transform="matrix(0.9974 -7.259917e-02 7.259917e-02 0.9974 -30.1364 -0.2003)" class="st0" width="0.6" height="0.6"/>
	
		<rect x="-18" y="416.4" transform="matrix(0.999 -4.564910e-02 4.564910e-02 0.999 -19.0416 -0.3713)" class="st0" width="0.6" height="0.6"/>
	
		<rect x="-19" y="405.6" transform="matrix(-0.1898 -0.9818 0.9818 -0.1898 -421.0394 464.345)" class="st0" width="0.1" height="0.6"/>
	
		<rect x="-42.7" y="363" transform="matrix(-0.7307 -0.6827 0.6827 -0.7307 -321.456 599.7628)" class="st0" width="0.6" height="0.6"/>
	
		<rect x="-138" y="354.2" transform="matrix(0.5406 0.8413 -0.8413 0.5406 234.9828 278.7232)" class="st0" width="0.6" height="0.6"/>
	
		<rect x="-44.4" y="361.5" transform="matrix(-0.7501 -0.6613 0.6613 -0.7501 -316.3697 604.0897)" class="st0" width="0.6" height="0.6"/>
	
		<rect x="-18.3" y="411.9" transform="matrix(0.9947 -0.1028 0.1028 0.9947 -42.4701 0.3314)" class="st0" width="0.6" height="0.6"/>
	
		<rect x="-18" y="425.3" transform="matrix(0.9974 7.255749e-02 -7.255749e-02 0.9974 30.8359 2.4097)" class="st0" width="0.6" height="0.6"/>
	
		<rect x="-49.6" y="357.2" transform="matrix(0.5957 -0.8032 0.8032 0.5957 -307.0854 104.9508)" class="st0" width="0.6" height="0.6"/>
	
		<rect x="-17.9" y="423.1" transform="matrix(0.9991 4.325670e-02 -4.325670e-02 0.9991 18.2967 1.1579)" class="st0" width="0.6" height="0.6"/>
	<polygon class="st0" points="-17.8,421.5 -17.3,421.5 -17.3,420.9 -17.8,420.9 	"/>
	<polygon class="st0" points="-17.3,419.2 -17.3,418.7 -17.8,418.7 -17.8,419.2 	"/>
	
		<rect x="-73.3" y="494.9" transform="matrix(-0.2936 -0.9559 0.9559 -0.2936 -567.8287 570.8318)" class="st0" width="0.6" height="0.6"/>
	
		<rect x="-173" y="433.6" transform="matrix(0.1739 0.9848 -0.9848 0.1739 284.6136 528.4551)" class="st0" width="0.6" height="0.6"/>
	
		<rect x="-49.5" y="482.9" transform="matrix(-0.598 -0.8015 0.8015 -0.598 -465.8593 732.6752)" class="st0" width="0.6" height="0.6"/>
	
		<rect x="-173.4" y="429.3" transform="matrix(-0.115 -0.9934 0.9934 -0.115 -619.9767 306.92)" class="st0" width="0.3" height="0.6"/>
	
		<rect x="-173.3" y="431.4" transform="matrix(-0.99 0.1409 -0.1409 -0.99 -283.4446 883.441)" class="st0" width="0.6" height="0.6"/>
	
		<rect x="-47.8" y="481.6" transform="matrix(-0.6204 -0.7843 0.7843 -0.6204 -454.8134 743.5833)" class="st0" width="0.6" height="0.6"/>
	<polygon class="st0" points="-171.5,440.3 -171.4,440.7 -170.9,440.6 -171,440.1 	"/>
	<rect x="-174.1" y="420.3" class="st0" width="0.6" height="0.6"/>
	
		<rect x="-173.8" y="426.9" transform="matrix(8.689211e-02 0.9962 -0.9962 8.689211e-02 267.2013 562.9227)" class="st0" width="0.6" height="0.6"/>
	
		<rect x="-51.3" y="484.2" transform="matrix(-0.5745 -0.8185 0.8185 -0.5745 -476.8325 721.0844)" class="st0" width="0.6" height="0.6"/>
	<polygon class="st0" points="-173.5,422.5 -174.1,422.5 -174.1,423.1 -173.5,423.1 	"/>
	
		<rect x="-174" y="424.7" transform="matrix(-0.9984 5.701903e-02 -5.701903e-02 -0.9984 -322.886 859.2006)" class="st0" width="0.6" height="0.6"/>
	<polygon class="st0" points="-172.1,438.1 -172,438.6 -171.4,438.5 -171.5,438 	"/>
	
		<rect x="-170.2" y="444.4" transform="matrix(0.3119 0.9501 -0.9501 0.3119 305.5983 467.4102)" class="st0" width="0.6" height="0.6"/>
	
		<rect x="-169.5" y="446.5" transform="matrix(0.339 0.9408 -0.9408 0.339 308.5479 454.5093)" class="st0" width="0.6" height="0.6"/>
	
		<rect x="-172.6" y="435.8" transform="matrix(0.2013 0.9795 -0.9795 0.2013 289.583 517.0271)" class="st0" width="0.6" height="0.6"/>
	
		<rect x="-168.7" y="448.6" transform="matrix(0.3663 0.9305 -0.9305 0.3663 311.0035 441.1474)" class="st0" width="0.6" height="0.6"/>
	
		<rect x="-56.9" y="487.8" transform="matrix(-0.5034 -0.864 0.864 -0.5034 -506.8979 684.9318)" class="st0" width="0.6" height="0.6"/>
	
		<rect x="-58.9" y="488.9" transform="matrix(-0.4774 -0.8787 0.8787 -0.4774 -516.4487 671.2284)" class="st0" width="0.6" height="0.6"/>
	
		<rect x="-64.9" y="491.8" transform="matrix(-0.401 -0.9161 0.9161 -0.401 -541.362 630.2987)" class="st0" width="0.6" height="0.6"/>
	
		<rect x="-53.2" y="485.5" transform="matrix(-0.5516 -0.8341 0.8341 -0.5516 -487.2437 709.6705)" class="st0" width="0.6" height="0.6"/>
	
		<rect x="-170.9" y="442.3" transform="matrix(0.2843 0.9587 -0.9587 0.2843 302.2472 480.3551)" class="st0" width="0.6" height="0.6"/>
	
		<rect x="-62.9" y="490.9" transform="matrix(-0.4281 -0.9037 0.9037 -0.4281 -533.2986 644.8952)" class="st0" width="0.6" height="0.6"/>
	
		<rect x="-75.5" y="495.5" transform="matrix(0.2604 0.9655 -0.9655 0.2604 423.1322 439.3121)" class="st0" width="0.6" height="0.6"/>
	
		<rect x="-60.9" y="489.9" transform="matrix(-0.4539 -0.8911 0.8911 -0.4539 -524.8799 658.7142)" class="st0" width="0.6" height="0.6"/>
	
		<rect x="-171.6" y="400.3" transform="matrix(0.9685 0.2489 -0.2489 0.9685 94.3193 55.2486)" class="st0" width="0.6" height="0.6"/>
	
		<rect x="-171" y="398.1" transform="matrix(0.9608 0.2774 -0.2774 0.9608 103.8041 62.9842)" class="st0" width="0.6" height="0.6"/>
	<rect x="-170.3" y="396" transform="matrix(0.953 0.3029 -0.3029 0.953 112.0572 70.1145)" class="st0" width="0.6" height="0.6"/>
	
		<rect x="-31" y="463.5" transform="matrix(-0.8331 -0.5531 0.5531 -0.8331 -312.7776 833.192)" class="st0" width="0.6" height="0.6"/>
	
		<rect x="-44.2" y="478.7" transform="matrix(-0.6645 -0.7473 0.7473 -0.6645 -431.0937 764.4892)" class="st0" width="0.6" height="0.6"/>
	<path class="st0" d="M-172.1,403l0.5,0.1c0-0.2,0.1-0.4,0.1-0.5l-0.5-0.2C-172,402.6-172.1,402.8-172.1,403z"/>
	
		<rect x="-165.1" y="383.7" transform="matrix(0.8862 0.4634 -0.4634 0.8862 159.1555 120.0663)" class="st0" width="0.6" height="0.6"/>
	
		<rect x="-172.4" y="404.5" transform="matrix(-0.1982 0.9802 -0.9802 -0.1982 190.4519 653.8615)" class="st0" width="0.4" height="0.6"/>
	
		<rect x="-166.1" y="385.6" transform="matrix(0.899 0.438 -0.438 0.899 152.2555 111.5898)" class="st0" width="0.6" height="0.6"/>
	
		<rect x="-32.2" y="465.4" transform="matrix(-0.8168 -0.5769 0.5769 -0.8168 -326.693 827.6979)" class="st0" width="0.6" height="0.6"/>
	
		<rect x="-169.6" y="394" transform="matrix(0.3357 -0.942 0.942 0.3357 -483.8794 102.384)" class="st0" width="0.4" height="0.6"/>
	
		<rect x="-173.8" y="413.6" transform="matrix(-0.9959 -9.018135e-02 9.018135e-02 -0.9959 -383.6314 810.4463)" class="st0" width="0.6" height="0.6"/>
	
		<rect x="-39.4" y="474" transform="matrix(-0.7264 -0.6872 0.6872 -0.7264 -393.4413 791.9484)" class="st0" width="0.6" height="0.6"/>
	
		<rect x="-37.8" y="472.4" transform="matrix(0.6694 -0.7429 0.7429 0.6694 -363.6664 128.287)" class="st0" width="0.2" height="0.6"/>
	
		<rect x="-174.1" y="418" transform="matrix(-0.9995 -3.140072e-02 3.140072e-02 -0.9995 -360.6487 830.9139)" class="st0" width="0.6" height="0.6"/>
	<polygon class="st0" points="-173.9,415.8 -174,416.3 -173.4,416.4 -173.4,415.8 	"/>
	
		<rect x="-45.9" y="480.1" transform="matrix(-0.7688 0.6395 -0.6395 -0.7688 226.4518 878.9349)" class="st0" width="0.5" height="0.6"/>
	
		<rect x="-173.6" y="411.3" transform="matrix(-0.9932 -0.1165 0.1165 -0.9932 -393.376 800.192)" class="st0" width="0.6" height="0.6"/>
	
		<rect x="-173" y="406.9" transform="matrix(-0.9847 -0.1744 0.1744 -0.9847 -413.7717 778.0153)" class="st0" width="0.6" height="0.6"/>
	
		<rect x="-173.3" y="409.1" transform="matrix(-0.9894 -0.1455 0.1455 -0.9894 -403.7288 789.2661)" class="st0" width="0.6" height="0.6"/>
	
		<rect x="-55.1" y="486.7" transform="matrix(-0.5283 -0.8491 0.8491 -0.5283 -497.1906 697.7792)" class="st0" width="0.6" height="0.6"/>
	
		<rect x="-42.6" y="477.2" transform="matrix(-0.6849 -0.7286 0.7286 -0.6849 -419.2234 773.6385)" class="st0" width="0.6" height="0.6"/>
	
		<rect x="-41" y="475.6" transform="matrix(-0.706 -0.7082 0.7082 -0.706 -406.4293 783.0225)" class="st0" width="0.6" height="0.6"/>
	
		<rect x="-69.1" y="493.5" transform="matrix(-0.3477 -0.9376 0.9376 -0.3477 -555.6996 600.9234)" class="st0" width="0.6" height="0.6"/>
	
		<rect x="-156.3" y="469.8" transform="matrix(0.6359 0.7718 -0.7718 0.6359 305.9999 291.5228)" class="st0" width="0.6" height="0.6"/>
	
		<rect x="-126" y="492.2" transform="matrix(0.9237 0.3831 -0.3831 0.9237 179.1011 85.7283)" class="st0" width="0.6" height="0.6"/>
	
		<rect x="-154.8" y="471.4" transform="matrix(0.6577 0.7533 -0.7533 0.6577 302.459 277.8994)" class="st0" width="0.6" height="0.6"/>
	
		<rect x="-151.8" y="474.8" transform="matrix(0.6993 0.7148 -0.7148 0.6993 294.0371 251.1233)" class="st0" width="0.6" height="0.6"/>
	
		<rect x="-153.3" y="473.1" transform="matrix(0.6785 0.7346 -0.7346 0.6785 298.5466 264.6155)" class="st0" width="0.6" height="0.6"/>
	
		<rect x="-113.2" y="496.3" transform="matrix(0.9758 0.2188 -0.2188 0.9758 105.924 36.7356)" class="st0" width="0.6" height="0.6"/>
	
		<rect x="-160.4" y="464.4" transform="matrix(0.5671 0.8236 -0.8236 0.5671 313.4571 332.9838)" class="st0" width="0.6" height="0.6"/>
	
		<rect x="-111" y="496.7" transform="matrix(0.9816 0.1911 -0.1911 0.9816 92.9431 30.3168)" class="st0" width="0.6" height="0.6"/>
	
		<rect x="-159" y="466.2" transform="matrix(0.5902 0.8073 -0.8073 0.5902 311.5307 319.2777)" class="st0" width="0.6" height="0.6"/>
	
		<rect x="-150.2" y="476.3" transform="matrix(0.7196 0.6944 -0.6944 0.7196 288.9346 237.7232)" class="st0" width="0.6" height="0.6"/>
	
		<rect x="-157.7" y="468.1" transform="matrix(0.613 0.7901 -0.7901 0.613 309.131 305.607)" class="st0" width="0.6" height="0.6"/>
	
		<rect x="-145.2" y="480.8" transform="matrix(0.7764 0.6303 -0.6303 0.7764 270.861 198.8949)" class="st0" width="0.6" height="0.6"/>
	
		<rect x="-139.8" y="484.7" transform="matrix(0.8279 0.5608 -0.5608 0.8279 248.0237 161.6854)" class="st0" width="0.6" height="0.6"/>
	
		<rect x="-141.6" y="483.5" transform="matrix(0.8112 0.5847 -0.5847 0.8112 256.2233 173.9343)" class="st0" width="0.6" height="0.6"/>
	
		<rect x="-143.4" y="482.2" transform="matrix(0.7941 0.6077 -0.6077 0.7941 263.7776 186.3089)" class="st0" width="0.6" height="0.6"/>
	
		<rect x="-137.9" y="486" transform="matrix(0.8434 0.5373 -0.5373 0.8434 239.7638 150.0748)" class="st0" width="0.6" height="0.6"/>
	
		<rect x="-134" y="488.3" transform="matrix(0.8734 0.487 -0.487 0.8734 221.0267 126.9902)" class="st0" width="0.6" height="0.6"/>
	
		<rect x="-130.1" y="490.4" transform="matrix(0.9002 0.4354 -0.4354 0.9002 200.7015 105.4498)" class="st0" width="0.6" height="0.6"/>
	
		<rect x="-167.9" y="450.7" transform="matrix(0.3931 0.9195 -0.9195 0.3931 312.9211 427.8039)" class="st0" width="0.6" height="0.6"/>
	
		<rect x="-128" y="491.4" transform="matrix(0.9124 0.4093 -0.4093 0.9124 190.053 95.3444)" class="st0" width="0.6" height="0.6"/>
	
		<rect x="-132.1" y="489.3" transform="matrix(0.887 0.4618 -0.4618 0.887 211.2231 116.1852)" class="st0" width="0.6" height="0.6"/>
	
		<rect x="-148.5" y="477.9" transform="matrix(0.7389 0.6739 -0.6739 0.7389 283.5255 224.77)" class="st0" width="0.6" height="0.6"/>
	
		<rect x="-108.8" y="497.1" transform="matrix(0.9866 0.1633 -0.1633 0.9866 79.7749 24.3963)" class="st0" width="0.6" height="0.6"/>
	
		<rect x="-146.9" y="479.4" transform="matrix(0.7581 0.6521 -0.6521 0.7581 277.3467 211.6081)" class="st0" width="0.6" height="0.6"/>
	
		<rect x="-86.4" y="497.7" transform="matrix(-0.1259 -0.992 0.992 -0.1259 -591.0411 475.2495)" class="st0" width="0.6" height="0.6"/>
	
		<rect x="-104.3" y="497.8" transform="matrix(0.1048 -0.9945 0.9945 0.1048 -588.4869 342.4402)" class="st0" width="0.6" height="0.6"/>
	
		<rect x="-84.2" y="497.4" transform="matrix(-0.1543 -0.988 0.988 -0.1543 -588.6188 491.541)" class="st0" width="0.6" height="0.6"/>
	<polygon class="st0" points="-79.2,497.1 -79.3,496.5 -79.8,496.7 -79.7,497.2 	"/>
	
		<rect x="-82" y="497" transform="matrix(-0.1826 -0.9832 0.9832 -0.1826 -585.5755 507.7729)" class="st0" width="0.6" height="0.6"/>
	
		<rect x="-71.2" y="494.2" transform="matrix(-0.321 -0.9471 0.9471 -0.321 -561.97 586.1114)" class="st0" width="0.6" height="0.6"/>
	
		<rect x="-164.9" y="456.8" transform="matrix(0.4698 0.8828 -0.8828 0.4698 316.2049 387.6719)" class="st0" width="0.6" height="0.6"/>
	
		<rect x="-135.5" y="487.4" transform="matrix(-0.8588 -0.5123 0.5123 -0.8588 -501.6671 837.1356)" class="st0" width="0.1" height="0.6"/>
	
		<rect x="-66.9" y="492.7" transform="matrix(0.9283 -0.3717 0.3717 0.9283 -188.0577 10.4608)" class="st0" width="0.1" height="0.6"/>
	<polygon class="st0" points="-77.7,496.2 -77.5,496.7 -77,496.6 -77.1,496 	"/>
	
		<rect x="-167" y="452.7" transform="matrix(0.4193 0.9078 -0.9078 0.4193 314.4581 414.3387)" class="st0" width="0.6" height="0.6"/>
	
		<rect x="-166" y="454.8" transform="matrix(0.4446 0.8957 -0.8957 0.4446 315.6012 401.1399)" class="st0" width="0.6" height="0.6"/>
	
		<rect x="-161.2" y="462.8" transform="matrix(-0.544 -0.8391 0.8391 -0.544 -637.2964 579.763)" class="st0" width="0.2" height="0.6"/>
	
		<rect x="-93.1" y="498.2" transform="matrix(-3.780624e-02 -0.9993 0.9993 -3.780624e-02 -594.5214 424.6064)" class="st0" width="0.6" height="0.6"/>
	
		<rect x="-90.9" y="498.1" transform="matrix(-6.763884e-02 -0.9977 0.9977 -6.763884e-02 -593.976 441.688)" class="st0" width="0.6" height="0.6"/>
	
		<rect x="-106.5" y="497.6" transform="matrix(0.1329 -0.9911 0.9911 0.1329 -585.5373 326.4109)" class="st0" width="0.6" height="0.6"/>
	<rect x="-101.6" y="498" class="st0" width="0" height="0.6"/>
	
		<rect x="-88.7" y="497.8" transform="matrix(8.959154e-02 0.996 -0.996 8.959154e-02 415.667 541.5349)" class="st0" width="0.6" height="0.6"/>
	
		<rect x="-163.9" y="458.7" transform="matrix(0.4945 0.8692 -0.8692 0.4945 316.2722 374.2589)" class="st0" width="0.6" height="0.6"/>
	
		<rect x="-162.7" y="460.6" transform="matrix(0.5188 0.8549 -0.8549 0.5188 315.8329 360.6517)" class="st0" width="0.6" height="0.6"/>
	
		<rect x="-97.7" y="498.2" transform="matrix(1.759166e-02 -0.9998 0.9998 1.759166e-02 -594.1198 392.3962)" class="st0" width="0.6" height="0.6"/>
	
		<rect x="-95.4" y="498.2" transform="matrix(-1.003645e-02 -0.9999 0.9999 -1.003645e-02 -594.56 408.3966)" class="st0" width="0.6" height="0.6"/>
	
		<rect x="-99.9" y="498.2" transform="matrix(4.713603e-02 -0.9989 0.9989 4.713603e-02 -592.8536 375.4938)" class="st0" width="0.6" height="0.6"/>
	
		<rect x="-167.1" y="387.6" transform="matrix(0.9111 0.4122 -0.4122 0.9111 145.0551 103.2427)" class="st0" width="0.6" height="0.6"/>
	
		<rect x="-100.1" y="342" transform="matrix(5.579764e-02 0.9984 -0.9984 5.579764e-02 247.5759 422.8994)" class="st0" width="0.6" height="0.6"/>
	
		<rect x="-106.8" y="342.7" transform="matrix(0.1421 0.9899 -0.9899 0.1421 248.1178 399.7142)" class="st0" width="0.6" height="0.6"/>
	
		<rect x="-33.6" y="467.2" transform="matrix(-0.7993 -0.6009 0.6009 -0.7993 -340.8631 821.1165)" class="st0" width="0.6" height="0.6"/>
	
		<rect x="-102.3" y="342.2" transform="matrix(8.558698e-02 0.9963 -0.9963 8.558698e-02 247.9328 414.769)" class="st0" width="0.6" height="0.6"/>
	
		<rect x="-104.5" y="342.4" transform="matrix(0.1139 0.9935 -0.9935 0.1139 248.1419 407.2543)" class="st0" width="0.6" height="0.6"/>
	
		<rect x="-97.9" y="342" transform="matrix(-1.999262e-02 -0.9998 0.9998 -1.999262e-02 -441.7476 251.5447)" class="st0" width="0.6" height="0.6"/>
	<path class="st0" d="M-19.7,437.3l0.5,0.1c0-0.2,0.1-0.4,0.1-0.6l-0.5-0.1C-19.6,437-19.7,437.2-19.7,437.3z"/>
	
		<rect x="-93.4" y="342" transform="matrix(-2.946217e-02 0.9996 -0.9996 -2.946217e-02 246.2773 445.4703)" class="st0" width="0.6" height="0.6"/>
	<rect x="-20.2" y="439" transform="matrix(0.9692 0.2461 -0.2461 0.9692 107.505 18.4158)" class="st0" width="0.6" height="0.6"/>
	
		<rect x="-91.2" y="342.1" transform="matrix(-5.887746e-02 0.9983 -0.9983 -5.887746e-02 245.5947 453.3478)" class="st0" width="0.6" height="0.6"/>
	
		<rect x="-22.8" y="447.6" transform="matrix(-0.9376 -0.3478 0.3478 -0.9376 -199.3717 860.0028)" class="st0" width="0.6" height="0.6"/>
	
		<rect x="-21.3" y="443.4" transform="matrix(-0.9565 -0.2916 0.2916 -0.9565 -170.5068 862.0286)" class="st0" width="0.6" height="0.6"/>
	<rect x="-111.2" y="343.4" transform="matrix(0.199 0.98 -0.98 0.199 248.0137 384.0097)" class="st0" width="0.6" height="0.6"/>
	
		<rect x="-109" y="343" transform="matrix(0.1704 0.9854 -0.9854 0.1704 248.1289 391.9177)" class="st0" width="0.6" height="0.6"/>
	
		<rect x="-23.6" y="449.7" transform="matrix(-0.9278 -0.373 0.373 -0.9278 -212.8151 858.8101)" class="st0" width="0.6" height="0.6"/>
	
		<rect x="-113.4" y="343.9" transform="matrix(0.2277 0.9737 -0.9737 0.2277 247.8349 375.9149)" class="st0" width="0.6" height="0.6"/>
	
		<rect x="-20.6" y="441.3" transform="matrix(0.2695 -0.963 0.963 0.2695 -440.2276 302.8866)" class="st0" width="0.3" height="0.6"/>
	
		<rect x="-117.7" y="345" transform="matrix(0.2831 0.9591 -0.9591 0.2831 246.9998 360.1544)" class="st0" width="0.6" height="0.6"/>
	
		<rect x="-88.9" y="342.3" transform="matrix(9.405793e-02 -0.9956 0.9956 9.405793e-02 -421.4166 222.1572)" class="st0" width="0.6" height="0.6"/>
	
		<rect x="-115.6" y="344.5" transform="matrix(0.2545 0.9671 -0.9671 0.2545 247.4825 368.4814)" class="st0" width="0.6" height="0.6"/>
	
		<rect x="-22" y="445.5" transform="matrix(-0.9475 -0.3197 0.3197 -0.9475 -184.8326 861.2735)" class="st0" width="0.6" height="0.6"/>
	
		<rect x="-69.3" y="346.7" transform="matrix(-0.9404 -0.3402 0.3402 -0.9404 -251.9422 649.8158)" class="st0" width="0.6" height="0.6"/>
	
		<rect x="-63.1" y="349.2" transform="matrix(-0.9076 -0.4199 0.4199 -0.9076 -266.5319 640.3278)" class="st0" width="0.6" height="0.6"/>
	
		<rect x="-59.1" y="351.2" transform="matrix(-0.8814 -0.4724 0.4724 -0.8814 -276.6384 633.5101)" class="st0" width="0.6" height="0.6"/>
	
		<rect x="-65.1" y="348.3" transform="matrix(-0.919 -0.3942 0.3942 -0.919 -261.7859 643.4395)" class="st0" width="0.6" height="0.6"/>
	
		<rect x="-71.5" y="345.9" transform="matrix(0.9498 0.3128 -0.3128 0.9498 104.7348 39.6372)" class="st0" width="0.6" height="0.6"/>
	
		<rect x="-67.2" y="347.5" transform="matrix(-0.9302 -0.3671 0.3671 -0.9302 -256.8243 646.7326)" class="st0" width="0.6" height="0.6"/>
	<path class="st0" d="M-52.6,354.9c-0.2-0.1-0.3-0.2-0.5-0.3l-0.3,0.5c0.2,0.1,0.3,0.2,0.5,0.3L-52.6,354.9z"/>
	
		<rect x="-60.7" y="350.3" transform="matrix(-0.895 -0.446 0.446 -0.895 -271.2295 637.3848)" class="st0" width="0.2" height="0.6"/>
	
		<rect x="-148.6" y="362.4" transform="matrix(0.6758 0.7371 -0.7371 0.6758 219.2562 226.9153)" class="st0" width="0.6" height="0.6"/>
	
		<rect x="-86.8" y="342.5" transform="matrix(0.1213 -0.9926 0.9926 0.1213 -416.2839 215.4019)" class="st0" width="0.6" height="0.6"/>
	
		<rect x="-57.1" y="352.3" transform="matrix(-0.8672 -0.4979 0.4979 -0.8672 -281.6292 630.1024)" class="st0" width="0.6" height="0.6"/>
	<path class="st0" d="M-54.5,353.7c-0.2-0.1-0.3-0.2-0.5-0.3l-0.3,0.5c0.2,0.1,0.3,0.2,0.5,0.3L-54.5,353.7z"/>
	<polygon class="st0" points="-84.5,343.4 -84,343.4 -83.9,342.9 -84.4,342.8 	"/>
	
		<rect x="-80.1" y="343.6" transform="matrix(-0.1984 0.9801 -0.9801 -0.1984 241.4458 490.377)" class="st0" width="0.6" height="0.6"/>
	<polygon class="st0" points="-18.1,432.1 -18.7,432 -18.8,432.4 -18.8,433 -18.3,433.1 -18.2,432.5 	"/>
	<rect x="-82.3" y="343.2" transform="matrix(0.9846 0.175 -0.175 0.9846 58.8422 19.6434)" class="st0" width="0.6" height="0.6"/>
	<rect x="-95.3" y="342" class="st0" width="0.3" height="0.6"/>
	
		<rect x="-75.7" y="344.7" transform="matrix(-0.9661 -0.2581 0.2581 -0.9661 -237.3226 658.8357)" class="st0" width="0.6" height="0.6"/>
	
		<rect x="-73.5" y="345.3" transform="matrix(-0.9584 -0.2854 0.2854 -0.9584 -242.0268 655.9494)" class="st0" width="0.6" height="0.6"/>
	<rect x="-19.2" y="434.6" transform="matrix(0.982 0.1888 -0.1888 0.982 81.7643 11.3911)" class="st0" width="0.6" height="0.6"/>
	
		<rect x="-77.9" y="344.1" transform="matrix(-0.9731 -0.2302 0.2302 -0.9731 -232.4071 661.6633)" class="st0" width="0.6" height="0.6"/>
	
		<rect x="-18.5" y="429.9" transform="matrix(0.1252 -0.9921 0.9921 0.1252 -442.7259 358.2121)" class="st0" width="0.6" height="0.6"/>
	
		<rect x="-143.6" y="358.1" transform="matrix(0.6117 0.7911 -0.7911 0.6117 227.9034 252.5039)" class="st0" width="0.6" height="0.6"/>
	
		<rect x="-162.9" y="379.7" transform="matrix(0.8574 0.5146 -0.5146 0.8574 172.3956 137.8388)" class="st0" width="0.6" height="0.6"/>
	
		<rect x="-154.9" y="368.8" transform="matrix(0.7564 0.6541 -0.6541 0.7564 203.7409 191.0566)" class="st0" width="0.6" height="0.6"/>
	
		<rect x="-141.7" y="356.7" transform="matrix(0.5874 0.8093 -0.8093 0.5874 230.5978 261.7806)" class="st0" width="0.6" height="0.6"/>
	
		<rect x="-164" y="381.6" transform="matrix(0.8714 0.4905 -0.4905 0.8714 166.2876 129.3937)" class="st0" width="0.6" height="0.6"/>
	
		<rect x="-153.5" y="367.1" transform="matrix(0.7371 0.6757 -0.6757 0.7371 208.021 200.0822)" class="st0" width="0.6" height="0.6"/>
	
		<rect x="-156.4" y="370.5" transform="matrix(0.7745 0.6325 -0.6325 0.7745 199.3728 182.3237)" class="st0" width="0.6" height="0.6"/>
	
		<rect x="-27.5" y="457.8" transform="matrix(-0.8774 -0.4797 0.4797 -0.8774 -270.8622 846.9422)" class="st0" width="0.6" height="0.6"/>
	
		<rect x="-36.4" y="470.7" transform="matrix(-0.7633 -0.6461 0.6461 -0.7633 -367.9901 807.1505)" class="st0" width="0.6" height="0.6"/>
	
		<rect x="-150.2" y="364" transform="matrix(0.7192 -0.6948 0.6948 0.7192 -295.2576 -1.9436)" class="st0" width="0.4" height="0.6"/>
	
		<rect x="-28.6" y="459.7" transform="matrix(-0.8636 -0.5042 0.5042 -0.8636 -284.6744 842.9761)" class="st0" width="0.6" height="0.6"/>
	
		<rect x="-26.4" y="455.8" transform="matrix(-0.8918 -0.4524 0.4524 -0.8918 -255.7651 851.0412)" class="st0" width="0.6" height="0.6"/>
	
		<rect x="-157.6" y="372.2" transform="matrix(-0.6124 0.7905 -0.7905 -0.6124 40.7736 725.0923)" class="st0" width="0.4" height="0.6"/>
	
		<rect x="-29.7" y="461.6" transform="matrix(-0.8487 -0.5289 0.5289 -0.8487 -298.6763 838.4251)" class="st0" width="0.6" height="0.6"/>
	
		<rect x="-145.3" y="359.5" transform="matrix(0.6328 0.7743 -0.7743 0.6328 225.378 244.3846)" class="st0" width="0.6" height="0.6"/>
	
		<rect x="-35" y="469" transform="matrix(-0.7827 -0.6224 0.6224 -0.7827 -354.0014 814.9294)" class="st0" width="0.6" height="0.6"/>
	
		<rect x="-168.8" y="391.8" transform="matrix(0.9333 0.3591 -0.3591 0.9333 129.5506 86.6604)" class="st0" width="0.6" height="0.6"/>
	<path class="st0" d="M-147.1,361.2l0.4,0.4c0.1-0.1,0.3-0.2,0.4-0.4l-0.4-0.3C-146.8,361-147,361.1-147.1,361.2z"/>
	
		<rect x="-168" y="389.7" transform="matrix(0.9232 0.3844 -0.3844 0.9232 137.0187 94.4348)" class="st0" width="0.6" height="0.6"/>
	
		<rect x="-159.2" y="374.1" transform="matrix(0.8097 0.5869 -0.5869 0.8097 189.4778 164.4975)" class="st0" width="0.6" height="0.6"/>
	
		<rect x="-25.4" y="453.8" transform="matrix(-0.9047 -0.426 0.426 -0.9047 -241.3106 854.2272)" class="st0" width="0.6" height="0.6"/>
	<polygon class="st0" points="-24.4,451.6 -24.5,452.1 -24,452.3 -23.8,451.9 	"/>
	
		<rect x="-160.4" y="375.9" transform="matrix(0.8263 0.5633 -0.5633 0.8263 184.0613 155.5523)" class="st0" width="0.6" height="0.6"/>
	
		<rect x="-161.7" y="377.8" transform="matrix(0.8421 0.5393 -0.5393 0.8421 178.4445 146.7297)" class="st0" width="0.6" height="0.6"/>
	
		<rect x="-151.9" y="365.5" transform="matrix(0.7178 0.6962 -0.6962 0.7178 211.914 208.7526)" class="st0" width="0.6" height="0.6"/>
	<path class="st0" d="M-177.1,429.9l-0.6,0.1c0.5,4,1.2,8,2.3,11.9l0.5-0.1C-175.9,437.8-176.6,433.9-177.1,429.9z"/>
	<path class="st0" d="M-20.8,453.8l0.5,0.2c1.6-3.6,3-7.4,4.1-11.4l-0.5-0.1C-17.8,446.4-19.2,450.1-20.8,453.8z"/>
	<path class="st0" d="M-132.1,347.1l-0.2-0.5c-3.6,1.8-7.1,3.9-10.4,6.1l0.3,0.5C-139.2,350.9-135.7,348.8-132.1,347.1z"/>
	<path class="st0" d="M-174.7,442.2l-0.5,0.1c1.1,3.9,2.4,7.7,4.1,11.4l0.5-0.2C-172.2,449.8-173.6,446.1-174.7,442.2z"/>
	<path class="st0" d="M-120.5,342.3l-0.2-0.5c-3.8,1.2-7.6,2.7-11.2,4.5l0.2,0.5C-128.1,345.1-124.4,343.6-120.5,342.3z"/>
	<path class="st0" d="M-26.8,464.8l0.5,0.3c2.2-3.4,4.1-6.9,5.8-10.6l-0.5-0.2C-22.7,457.9-24.6,461.5-26.8,464.8z"/>
	<path class="st0" d="M-101.9,502.1v0.6c4.1,0.3,8.1,0.3,12.1,0v-0.6C-93.8,502.4-97.8,502.4-101.9,502.1z"/>
	<path class="st0" d="M-53.7,490.8l0.3,0.5c3.5-2.1,6.8-4.4,9.9-6.9l-0.4-0.4C-47,486.4-50.3,488.7-53.7,490.8z"/>
	<path class="st0" d="M-177.6,417.4h-0.6c-0.2,4.1,0,8.1,0.4,12.1l0.6-0.1C-177.6,425.4-177.7,421.4-177.6,417.4z"/>
	<path class="st0" d="M-43.5,483.5l0.4,0.4c3.1-2.6,6-5.4,8.7-8.4l-0.4-0.4C-37.5,478.2-40.4,481-43.5,483.5z"/>
	<path class="st0" d="M-34.4,474.8l0.4,0.4c2.7-3,5.1-6.2,7.4-9.6l-0.5-0.3C-29.3,468.6-31.8,471.8-34.4,474.8z"/>
	<path class="st0" d="M-164.4,465l-0.5,0.3c2.2,3.4,4.6,6.6,7.3,9.6l0.4-0.4C-159.8,471.6-162.2,468.4-164.4,465z"/>
	<path class="st0" d="M-170.4,454l-0.5,0.2c1.7,3.7,3.6,7.2,5.8,10.6l0.5-0.3C-166.8,461.2-168.8,457.7-170.4,454z"/>
	<path class="st0" d="M-76.9,500.2l0.1,0.5c3.9-0.9,7.8-2.2,11.5-3.6l-0.2-0.5C-69.2,498-73,499.3-76.9,500.2z"/>
	<path class="st0" d="M-89.3,502.1v0.6c4.1-0.3,8-0.9,11.9-1.8l-0.1-0.5C-81.3,501.2-85.3,501.8-89.3,502.1z"/>
	<path class="st0" d="M-64.9,496.4l0.2,0.5c3.7-1.5,7.4-3.3,10.8-5.4l-0.3-0.5C-57.6,493.1-61.2,494.8-64.9,496.4z"/>
	<path class="st0" d="M-137.5,490.9l-0.3,0.5c3.4,2,7,3.8,10.8,5.4l0.2-0.5C-130.5,494.7-134.1,492.9-137.5,490.9z"/>
	<path class="st0" d="M-108.4,339.4v-0.5c-4,0.6-7.9,1.5-11.7,2.7l0.2,0.5C-116.2,341-112.3,340.1-108.4,339.4z"/>
	<path class="st0" d="M-30.7,370.5l0.4-0.3c-2.4-3.2-5.1-6.2-8-9l-0.4,0.4C-35.8,364.4-33.1,367.4-30.7,370.5z"/>
	<path class="st0" d="M-14.7,433c-0.5,3-1.1,6-1.9,8.9l0.5,0.1c0.8-2.9,1.4-5.9,1.9-8.9c0.2-1,0.3-2,0.4-2.9l-0.6-0.1
		C-14.4,431.1-14.6,432.1-14.7,433z"/>
	<path class="st0" d="M-15.3,404.5l0.5-0.1c-0.8-4-1.9-7.9-3.2-11.6l-0.5,0.2C-17.1,396.7-16.1,400.6-15.3,404.5z"/>
	<path class="st0" d="M-142.9,353.5l-0.3-0.5c-3.3,2.3-6.4,4.9-9.3,7.6l0.4,0.4C-149.2,358.3-146.2,355.8-142.9,353.5z"/>
	<path class="st0" d="M-59.5,346.8l0.2-0.5c-3.6-1.8-7.3-3.3-11.2-4.5l-0.2,0.5C-66.8,343.6-63.1,345.1-59.5,346.8z"/>
	<path class="st0" d="M-176.6,407.8c0.2-1,0.3-1.9,0.5-2.9l-0.5-0.1c-0.2,1-0.4,1.9-0.5,2.9c-0.5,3-0.8,6.1-0.9,9.1h0.6
		C-177.4,413.8-177.1,410.8-176.6,407.8z"/>
	<path class="st0" d="M-71.2,342.2l0.2-0.5c-3.8-1.2-7.7-2.1-11.7-2.7l-0.1,0.6C-78.8,340.1-74.9,341-71.2,342.2z"/>
	<path class="st0" d="M-18.7,392.5l0.5-0.2c-1.4-3.8-3-7.5-5-11l-0.5,0.3C-21.7,385-20,388.7-18.7,392.5z"/>
	<path class="st0" d="M-13.8,417h0.6c-0.2-4.1-0.6-8.1-1.4-12l-0.6,0.1C-14.4,409-14,413-13.8,417z"/>
	<path class="st0" d="M-167.7,381.3l-0.5-0.3c-1.9,3.5-3.6,7.2-5,11l0.5,0.2C-171.3,388.5-169.6,384.8-167.7,381.3z"/>
	<path class="st0" d="M-152.6,361.5l-0.4-0.4c-2.9,2.8-5.6,5.8-8.1,9l0.4,0.3C-158.1,367.2-155.4,364.2-152.6,361.5z"/>
	<path class="st0" d="M-48.8,353.2l0.3-0.5c-3.3-2.3-6.7-4.4-10.4-6.2l-0.2,0.5C-55.4,348.9-52,351-48.8,353.2z"/>
	<path class="st0" d="M-14.2,429.6l0.6,0.1c0.5-4.1,0.6-8.1,0.5-12.1h-0.6C-13.6,421.5-13.8,425.5-14.2,429.6z"/>
	<path class="st0" d="M-126.2,496.5l-0.2,0.5c3.7,1.5,7.5,2.7,11.5,3.7l0.1-0.5C-118.7,499.2-122.6,497.9-126.2,496.5z"/>
	<path class="st0" d="M-160.9,370.8l-0.4-0.3c-2.4,3.2-4.6,6.6-6.6,10.1l0.5,0.3C-165.5,377.3-163.3,374-160.9,370.8z"/>
	<path class="st0" d="M-95.9,338.5v-0.6c-4.1,0-8.1,0.3-12,0.9l0.1,0.6C-103.9,338.8-99.9,338.5-95.9,338.5z"/>
	<path class="st0" d="M-108.3,501.4c-2-0.3-4-0.7-6-1.2l-0.1,0.5c2,0.5,4,0.8,6,1.2c2,0.3,4,0.5,5.9,0.7V502
		C-104.4,501.9-106.3,501.7-108.3,501.4z"/>
	<path class="st0" d="M-39.1,361.2l0.4-0.4c-2.9-2.8-6-5.3-9.3-7.7l-0.3,0.5C-45,355.9-41.9,358.4-39.1,361.2z"/>
	<path class="st0" d="M-156.8,475l-0.4,0.4c2.7,3,5.6,5.8,8.7,8.4l0.4-0.4C-151.2,480.7-154.1,478-156.8,475z"/>
	<path class="st0" d="M-23.8,381l0.5-0.3c-1.9-3.5-4.1-6.9-6.6-10.1l-0.4,0.3C-28,374.2-25.8,377.5-23.8,381z"/>
	<path class="st0" d="M-83.4,339.4l0.1-0.6c-4-0.6-8-0.9-12-0.9v0.6C-91.4,338.5-87.4,338.8-83.4,339.4z"/>
	<path class="st0" d="M-147.7,483.7l-0.4,0.4c3.1,2.6,6.4,4.9,9.8,7l0.3-0.5C-141.4,488.5-144.7,486.2-147.7,483.7z"/>
	<path class="st0" d="M-172.8,392.8l-0.5-0.2c-1.3,3.7-2.4,7.6-3.2,11.6l0.5,0.1C-175.2,400.4-174.2,396.5-172.8,392.8z"/>
	<path class="st0" d="M-11.1,433.6c3.5-22.6-2-45.2-15.4-63.7c-13.5-18.5-33.3-30.6-55.9-34.1s-45.2,2-63.7,15.4
		c-18.5,13.6-30.6,33.4-34.1,56s2,45.2,15.4,63.7s33.3,30.6,55.9,34.1s45.2-2,63.7-15.4C-26.7,476.1-14.6,456.2-11.1,433.6z
		 M-108.8,504.4c-46.4-7.2-78.1-50.7-70.9-97.1c7.2-46.4,50.7-78.1,97.1-70.9c46.4,7.2,78.1,50.7,70.9,97.1S-62.4,511.7-108.8,504.4
		z"/>
	<line class="st1" x1="-149.8" y1="485.8" x2="-149.8" y2="485.8"/>
	<line class="st1" x1="-127.6" y1="499.1" x2="-127.6" y2="499.1"/>
	<line class="st1" x1="-159.2" y1="476.7" x2="-159.2" y2="476.7"/>
	<line class="st1" x1="-52.5" y1="493.4" x2="-52.5" y2="493.4"/>
	<line class="st1" x1="-82.6" y1="336.4" x2="-82.6" y2="336.4"/>
	<line class="st1" x1="-121.2" y1="339.3" x2="-121.2" y2="339.3"/>
	<line class="st1" x1="-108.5" y1="336.4" x2="-108.5" y2="336.4"/>
	<line class="st1" x1="-180.5" y1="417" x2="-180.5" y2="417"/>
	<line class="st1" x1="-180.1" y1="429.9" x2="-180.1" y2="429.9"/>
	<line class="st1" x1="-167" y1="466.4" x2="-167" y2="466.4"/>
	<line class="st1" x1="-154.5" y1="359" x2="-154.5" y2="359"/>
	<line class="st1" x1="-89.4" y1="505" x2="-89.4" y2="505"/>
	<line class="st1" x1="-115.2" y1="503" x2="-115.2" y2="503"/>
	<line class="st1" x1="-102.4" y1="505" x2="-102.4" y2="505"/>
	<line class="st1" x1="-57.9" y1="344.3" x2="-57.9" y2="344.3"/>
	<line class="st1" x1="-46.8" y1="350.9" x2="-46.8" y2="350.9"/>
	<line class="st1" x1="-21.1" y1="379.9" x2="-21.1" y2="379.9"/>
	<line class="st1" x1="-36.8" y1="359.2" x2="-36.8" y2="359.2"/>
	<path class="st0" d="M-65.4,471.7c0,0.1-0.1,0.1-0.1,0.2l1.4,2.4c0.2,0,0.5,0,0.7,0.1l-1.8-3C-65.2,471.5-65.3,471.6-65.4,471.7z"
		/>
	<path class="st0" d="M-59,465.5l0.5,0.7c0.2-0.1,0.3-0.2,0.5-0.3l-0.5-0.6C-58.7,465.3-58.9,465.4-59,465.5z"/>
	<path class="st0" d="M-134.8,467.1l-2.1,2.5c0.1,0,0.2,0,0.2,0c0.1,0,0.3,0.1,0.4,0.1l1.6-1.9
		C-134.7,467.6-134.7,467.3-134.8,467.1z"/>
	<path class="st0" d="M-130.6,463l24.8-30c-0.2-0.1-0.3-0.3-0.4-0.4l-24.7,29.9C-130.8,462.6-130.7,462.8-130.6,463z"/>
	<path class="st0" d="M-52.5,439.5l-22.7-10.2c-0.2,0.1-0.5,0.2-0.7,0.3l23.3,10.5C-52.6,439.8-52.6,439.6-52.5,439.5z"/>
	<path class="st0" d="M-101.4,412.1L-101.4,412.1c-0.1-0.1-0.2-0.1-0.3-0.1v0.1c0.1,0,0.1,0,0.1,0H-101.4z"/>
	<path class="st0" d="M-87.5,434.8l17.3,29.2c0.1-0.2,0.2-0.3,0.4-0.5l-17.1-28.8C-87.1,434.7-87.3,434.8-87.5,434.8z"/>
	<path class="st0" d="M-89.9,435.5l14.5,36.1c0.1-0.2,0.3-0.3,0.4-0.5l-14.5-36.2C-89.7,435.2-89.8,435.4-89.9,435.5z"/>
	<path class="st0" d="M-73.1,477.5l0.9,2.2c0.2,0,0.3,0,0.5,0.1h0.1l-1.2-2.9C-72.9,477.1-73,477.3-73.1,477.5z"/>
	<path class="st0" d="M-127.6,474.3l24.3-40.7c-0.1-0.1-0.1-0.2-0.2-0.3c-0.1,0-0.2,0-0.3,0.1l-24.2,40.5
		C-127.8,474-127.7,474.2-127.6,474.3z"/>
	<path class="st0" d="M-47.1,434.1l2.1,0.6c-0.1-0.2-0.1-0.4-0.2-0.6l-2.2-0.6C-47.3,433.6-47.2,433.8-47.1,434.1z"/>
	<path class="st0" d="M-92.2,436.7l10.4,44.8c0.2-0.1,0.3-0.2,0.5-0.3l-10.3-44.6C-91.8,436.7-92,436.7-92.2,436.7z"/>
	<path class="st0" d="M-101.8,412.1L-101.8,412.1L-101.8,412.1L-101.8,412.1z"/>
	<path class="st0" d="M-35.8,427.1l-1.7-0.2c0,0.2,0.1,0.4,0.1,0.6l1.8,0.2C-35.7,427.4-35.8,427.2-35.8,427.1z"/>
	<path class="st0" d="M-145.5,434.2l3-0.8c0,0,0,0,0-0.1l0.1-0.2h0.2c0,0,0.1,0,0.1,0.1l27.4-7.5c-0.2-0.1-0.4-0.3-0.5-0.4
		l-29.8,8.2C-145.1,433.7-145.3,434-145.5,434.2z"/>
	<path class="st0" d="M-142.6,426l27-3.1c0.1-0.2,0.1-0.4,0.2-0.6l-27.1,3.1C-142.6,425.6-142.6,425.8-142.6,426z"/>
	<path class="st0" d="M-104.1,412l0.7,0.7c0.2-0.1,0.4-0.2,0.6-0.2l-0.8-0.8C-103.8,411.8-104,411.9-104.1,412z"/>
	<path class="st0" d="M-139.1,440l25.4-11.4c-0.1-0.1-0.3-0.3-0.4-0.4l-25.2,11.3C-139.2,439.7-139.2,439.8-139.1,440z"/>
	<path class="st0" d="M-81.4,374.3L-87,392c0.1,0.3,0.2,0.5,0.4,0.7l5.8-18.3L-81.4,374.3z"/>
	<path class="st0" d="M-45.2,426l-34.4-4c0.2,0.2,0.4,0.4,0.5,0.6l33.7,3.9C-45.3,426.3-45.3,426.1-45.2,426z"/>
	<path class="st0" d="M-106.9,412.1l1.7,1.3c0.2-0.1,0.4-0.2,0.6-0.2l-2-1.6C-106.7,411.8-106.8,412-106.9,412.1z"/>
	<path class="st0" d="M-152.3,400.2l42.2,15.2c0.2-0.1,0.5-0.2,0.8-0.3l-43-15.5C-152.3,399.8-152.3,400-152.3,400.2z"/>
	<path class="st0" d="M-109.8,412.3l-0.5-0.3c-0.2,0.1-0.3,0.3-0.5,0.3l3.5,1.9c0.2-0.1,0.4-0.2,0.7-0.3l-2.2-1
		C-109.2,412.7-109.5,412.5-109.8,412.3z"/>
	<path class="st0" d="M-145.4,410.9l31.7,6.2c0.3-0.1,0.5-0.3,0.8-0.4l-32.6-6.4C-145.4,410.5-145.4,410.7-145.4,410.9z"/>
	<path class="st0" d="M-139.2,448.7l28.8-18.6c-0.1-0.1-0.2-0.2-0.3-0.3c-0.1,0-0.2,0-0.3,0l-28,18.1
		C-139,448.2-139.1,448.5-139.2,448.7z"/>
	<path class="st0" d="M-39.1,436.3l1.6,0.4c0.2-0.2,0.3-0.3,0.5-0.5l-1.8-0.5C-38.9,436-39,436.1-39.1,436.3z"/>
	<path class="st0" d="M-143.7,418.7l26.5,1.1c0-0.2,0.1-0.4,0.1-0.6l-26.9-1.1C-143.9,418.3-143.8,418.5-143.7,418.7z"/>
	<path class="st0" d="M-45.2,443.4l2.8,1.3c0.1-0.2,0.1-0.4,0.2-0.5l-3-1.3C-45.2,443-45.2,443.2-45.2,443.4z"/>
	<path class="st0" d="M-95.9,372v19.5c0.2-0.1,0.4-0.3,0.6-0.5v-19H-95.9z"/>
	<path class="st0" d="M-54.1,457.9l1.6,1.4c0.1-0.2,0.1-0.4,0.2-0.6l-1.7-1.6C-54.1,457.5-54.1,457.7-54.1,457.9z"/>
	<path class="st0" d="M-133.2,454l25.7-22.8c-0.3,0-0.5,0-0.8-0.1l-25.1,22.3C-133.4,453.7-133.3,453.8-133.2,454z"/>
	<polygon class="st0" points="-80.2,372.6 -80,371.8 -80.6,371.7 -80.6,371.7 	"/>
	<path class="st0" d="M-89.9,384.3C-89.9,384.3-89.8,384.3-89.9,384.3L-89.9,384.3L-89.9,384.3l1.8-11.1l-0.6-0.1l-1.7,11.1
		c0.1,0,0.2,0,0.3,0l0,0C-90,384.3-90,384.3-89.9,384.3z"/>
	<path class="st0" d="M-148.2,418.5l2.1,0.1c0.2-0.2,0.3-0.4,0.5-0.5l-2.2-0.1C-147.9,418.2-148.1,418.3-148.2,418.5z"/>
	<polygon class="st0" points="-95.4,369.6 -95.4,369.4 -95.9,369.3 -95.9,370.3 	"/>
	<path class="st0" d="M-140.3,459.6l-2.7,2.4c0.2,0,0.5,0.1,0.7,0.2l2.2-2v-0.1C-140.2,459.9-140.2,459.7-140.3,459.6z"/>
	<path class="st0" d="M-146.5,442.7l-2.1,1c0,0.2,0,0.4,0.1,0.6l2-0.9C-146.6,443.2-146.6,442.9-146.5,442.7z"/>
	<path class="st0" d="M-150.9,435.1l-2.3,0.6c0.2,0.1,0.3,0.3,0.5,0.4l2-0.5C-150.8,435.5-150.8,435.3-150.9,435.1z"/>
	<path class="st0" d="M-144.7,451.7l-0.7,0.4c0.1,0.1,0.2,0.3,0.4,0.4l0.7-0.5C-144.5,452-144.6,451.8-144.7,451.7z"/>
	<path class="st0" d="M-150.6,426.3l-3.3,0.4c0,0.2,0,0.4,0,0.6l3.1-0.3C-150.7,426.7-150.7,426.5-150.6,426.3z"/>
	<path class="st0" d="M-154.5,417.7l-1.8-0.1c0.1,0.2,0.2,0.4,0.3,0.6l1.7,0.1C-154.5,418.1-154.5,417.9-154.5,417.7z"/>
	<path class="st0" d="M-49,433l-26.2-7.2c0.2,0.2,0.4,0.5,0.5,0.7l25.3,7C-49.3,433.3-49.1,433.1-49,433z"/>
	<path class="st0" d="M-153,408.8l-1.7-0.3c-0.1,0.2-0.2,0.3-0.3,0.5l1.7,0.3C-153.2,409.2-153.1,409-153,408.8z"/>
	<path class="st0" d="M-160.5,438.3c-0.1-0.2-0.2-0.3-0.3-0.5l-10.1,2.8l-0.5,0.1l-3.4,0.9l-0.5,0.1l-2.3,0.6l0.1,0.5l2.3-0.6
		l0.5-0.1L-160.5,438.3z"/>
	<path class="st0" d="M-80.8,483.3c-0.2,0.2-0.3,0.3-0.5,0.5l3.8,16.5l0.1,0.5l0.5,2.3l0.5-0.1l-0.5-2.3l-0.1-0.5L-80.8,483.3z"/>
	<path class="st0" d="M-47.9,451.7l1.7,1.1c0.2-0.1,0.4-0.2,0.6-0.3l-2-1.3C-47.7,451.4-47.8,451.6-47.9,451.7z"/>
	<polygon class="st0" points="-95.9,359.7 -95.3,359 -95.3,342.6 -95.3,342 -95.3,338.5 -95.3,337.9 -95.3,335.4 -95.9,335.4 
		-95.9,337.9 -95.9,338.5 	"/>
	<path class="st0" d="M-45.7,480.8l-0.4-0.4l-7.1-8.6c-0.1,0.1-0.3,0.2-0.4,0.4l9.6,11.7l0.4,0.4l1.5,1.8l0.4-0.4l-1.5-1.8l-0.4-0.4
		L-45.7,480.8z"/>
	<path class="st0" d="M-98.7,434.1c-0.2,0.2-0.5,0.3-0.7,0.5l-15.4,65.5l-0.1,0.5l-0.5,2.3l0.3,0.1l0.3,0.1l0.5-2.3l0.1-0.5
		L-98.7,434.1z"/>
	<path class="st0" d="M-173.6,429.5l0.6-0.1l12-1.4c-0.1-0.2-0.3-0.3-0.4-0.5l-15.7,1.8l-0.6,0.1l-2.4,0.3v0.3v0.3l2.4-0.3l0.6-0.1
		L-173.6,429.5z"/>
	<polygon class="st0" points="-83.9,342.9 -84,343.4 -85.3,351.6 -84.9,351.1 -84.7,351.5 -82.8,339.5 -82.7,338.9 -82.4,336.4 
		-82.6,336.4 -82.9,336.4 -83.3,338.8 -83.4,339.4 	"/>
	<path class="st0" d="M-72.6,395.9c0.3,0,0.5,0,0.8,0l33.2-34.4l0.4-0.4l1.7-1.8l-0.2-0.2l-0.2-0.2l-1.7,1.8l-0.4,0.4L-72.6,395.9z"
		/>
	<path class="st0" d="M-100.3,391.9c0.2,0,0.4,0,0.6,0.1l-8-52.6l-0.1-0.6l-0.4-2.5h-0.3h-0.3l0.4,2.5l0.1,0.6L-100.3,391.9z"/>
	<path class="st0" d="M-50.8,356.1l-0.3,0.5l-27.4,38.8c0.2,0,0.4,0.1,0.6,0.1l29.6-41.9l0.3-0.5l1.4-2l-0.2-0.2l-0.2-0.2l-1.4,2
		l-0.3,0.5L-50.8,356.1z"/>
	<path class="st0" d="M-83.2,394.5c0.2,0,0.4,0.1,0.6,0.1l21.8-43.9l0.2-0.5l1.6-3.2l0.2-0.5l1.1-2.2l-0.3-0.1l-0.3-0.1l-1.1,2.2
		l-0.2,0.5L-83.2,394.5z"/>
	<polygon class="st0" points="-77.4,361.7 -77,362.5 -70.6,342.4 -70.5,341.8 -69.7,339.5 -70.2,339.3 -71,341.7 -71.2,342.2 	"/>
	<path class="st0" d="M-101.4,435.1L-101.4,435.1c-0.3,0-0.4-0.1-0.5-0.1l-21.1,51.9c-0.1,0.8-0.3,1.4-0.6,1.7l-0.1,0.1l-3,7.5
		l-0.2,0.5l-0.9,2.2l0.3,0.1l0.3,0.1l0.9-2.2l0.2-0.5L-101.4,435.1z"/>
	<path class="st0" d="M-151.1,378.3c-0.2-0.4-0.5-0.8-0.6-1.2l-5.6-4.3l-0.4-0.3l-2.8-2.1l-0.5-0.4l-2-1.5l-0.3,0.4l2,1.5l0.4,0.3
		L-151.1,378.3z"/>
	<path class="st0" d="M-150.1,364l0.4,0.4l19,19.8c0.4,0.1,0.7,0.2,1.1,0.3l-22.5-23.4l-0.4-0.4l-1.7-1.8l-0.2,0.2l-0.2,0.2l1.7,1.8
		l0.4,0.4L-150.1,364z"/>
	<path class="st0" d="M-121.2,384.5c0.5,0.5,1,0.9,1.6,1.3l-22.8-32.6l-0.3-0.5l-1.5-2.1l-0.5,0.3l1.5,2.1l0.3,0.5L-121.2,384.5z"/>
	<path class="st0" d="M-161.1,407.8c-0.1-0.2-0.1-0.4-0.2-0.6l-10.7-2.1l-0.5-0.1l-3.5-0.7l-0.5-0.1l-2.5-0.4l-0.1,0.5l2.4,0.5
		l0.5,0.1L-161.1,407.8z"/>
	<path class="st0" d="M-169.5,394l0.5,0.2l7.9,2.9c0.1-0.2,0.1-0.4,0.2-0.5l-11.8-4.3l-0.5-0.2l-2.3-0.8l-0.1,0.3l0,0l-0.1,0.3
		l2.3,0.8l0.5,0.2L-169.5,394z"/>
	<path class="st0" d="M-119.5,345.7l0.2,0.5l14.2,45c0.2,0,0.4,0.1,0.6,0.1l-15.5-49.1l-0.2-0.5l-0.8-2.4l-0.3,0.1l-0.3,0.1l0.8,2.4
		l0.2,0.5L-119.5,345.7z"/>
	<path class="st0" d="M-111.1,389.8c0.2,0.1,0.5,0.1,0.7,0.2l-19.4-39.5l-0.2-0.5l-1.6-3.1l-0.2-0.5l-1.2-2.4l-0.5,0.2l1.1,2.3
		l0.2,0.5L-111.1,389.8z"/>
	<path class="st0" d="M-60.7,479c-0.2,0.1-0.3,0.2-0.5,0.3l7,11.8l0.3,0.5l1.2,2l0.2-0.1l0.2-0.1l-1.2-2l-0.3-0.5L-60.7,479z"/>
	<path class="st0" d="M-165.1,417.8c0-0.2,0-0.4,0-0.6l-12.4-0.5h-0.6l-2.4-0.1v0.3v0.3l2.4,0.1h0.6L-165.1,417.8z"/>
	<path class="st0" d="M-62.8,394.9c0.6-0.2,1.2-0.4,1.7-0.6l27.5-20.9l0.4-0.3l2.8-2.1l0.4-0.3l2-1.5l-0.3-0.4l-1.9,1.5l-0.4,0.3
		L-62.8,394.9z"/>
	<path class="st0" d="M-70,483.6c-0.2,0-0.4,0.1-0.6,0.1l3.6,9l0.2,0.5l1.3,3.3l0.2,0.5l0.9,2.2l0.5-0.2l-0.9-2.2l-0.2-0.5
		L-70,483.6z"/>
	<path class="st0" d="M-79.1,416.8L-79.1,416.8c-0.4,0.2-1.2,0.5-2,0.4l-2.4,0.5c0.2,0.2,0.3,0.3,0.5,0.5l4.3-0.8
		C-78.8,417.2-79,417-79.1,416.8z"/>
	<path class="st0" d="M-138.9,473c-0.2-0.1-0.3-0.2-0.5-0.3l-8.7,10.5l-0.4,0.4l-1.5,1.8l0.2,0.2l0.2,0.2l1.5-1.9l0.4-0.4
		L-138.9,473z"/>
	<path class="st0" d="M-128.7,402.6c-0.4-0.4-0.7-0.8-0.8-1.1l-0.6-0.3c-1.3-0.2-2.4-0.6-3-1.4c-0.1-0.1-0.2-0.3-0.3-0.4l-34-18.6
		l-0.5-0.3l-2.2-1.2l-0.3,0.6l2.2,1.2l0.5,0.3L-128.7,402.6z"/>
	<path class="st0" d="M-101.6,498.6V498l4.9-62.6c-0.2-0.1-0.4-0.3-0.5-0.4l-5.3,67v0.6l-0.2,2.3h0.3h0.3l0.2-2.3V502L-101.6,498.6z
		"/>
	<path class="st0" d="M-89.9,493.7c-0.1-0.3-0.1-0.6-0.1-1l-4.2-56.5l0,0c-0.2,0-0.4,0-0.5-0.1l5,66.1v0.6l0.2,2.3h0.3h0.3l-0.2-2.3
		v-0.6L-89.9,493.7z"/>
	<path class="st0" d="M-62.8,459.9l-21.1-25.6c-0.2,0-0.5,0.1-0.7,0.1l21.7,26.4C-62.9,460.5-62.9,460.2-62.8,459.9z"/>
	<path class="st0" d="M-85.2,414.5c-0.1,0-0.2,0-0.3,0l-0.7,0.4c0.1,0.1,0.3,0.3,0.4,0.4l0.9-0.5C-85.1,414.7-85.2,414.6-85.2,414.5
		z"/>
	<path class="st0" d="M-24,452.3l-0.5-0.2l-10.7-4.8c-0.2,0.1-0.4,0.2-0.6,0.4l14.7,6.6l0.5,0.2l2.1,0.9l0.2-0.5l-2.1-0.9l-0.5-0.2
		L-24,452.3z"/>
	<path class="st0" d="M-35.4,417.8l-46.4,1.7c0.2,0.2,0.3,0.4,0.5,0.5l45.7-1.7C-35.5,418.2-35.4,418-35.4,417.8z"/>
	<path class="st0" d="M-39,456.8c-0.1,0.1-0.3,0.3-0.4,0.4l12.3,8l0.5,0.3l1.9,1.2l0.3-0.5l-1.9-1.3l-0.5-0.3L-39,456.8z"/>
	<path class="st0" d="M-135.7,487.9l0.3-0.5l6.6-11.1c-0.1-0.2-0.2-0.4-0.3-0.6l-8.9,14.9l-0.3,0.5l-1.2,2l0.5,0.3l1.2-2l0.3-0.5
		L-135.7,487.9z"/>
	<path class="st0" d="M-48,462.6c-0.2,0.1-0.5,0.1-0.7,0.1l10.9,9.7l0.4,0.4l2.6,2.3l0.4,0.4l1.7,1.5l0.4-0.4l-1.7-1.5l-0.4-0.4
		L-48,462.6z"/>
	<path class="st0" d="M-29.1,427.8c-0.1,0.2-0.2,0.4-0.3,0.5l15.2,1.8l0.6,0.1l2.3,0.3l0.1-0.6l-2.3-0.3l-0.6-0.1L-29.1,427.8z"/>
	<path class="st0" d="M-161.4,463.1l0.5-0.3l9.3-6c-0.1-0.2-0.2-0.3-0.3-0.5l-12.8,8.2l-0.5,0.3l-2,1.3l0.2,0.2l0.2,0.2l2-1.3
		l0.5-0.3L-161.4,463.1z"/>
	<path class="st0" d="M-26.9,382.7l-0.5,0.3l-25.2,13.6c0.4,0,0.8,0,1.1,0l27.9-15.1l0.5-0.3l2.1-1.2l-0.1-0.2l-0.1-0.2l-2.1,1.2
		l-0.5,0.3L-26.9,382.7z"/>
	<path class="st0" d="M-26.3,417.5c0,0.2,0,0.4,0,0.6l12.5-0.5h0.6l2.3-0.1v-0.6l-2.3,0.1h-0.6L-26.3,417.5z"/>
	<path class="st0" d="M-60,451.9l-21.7-19.4c-0.1,0.2-0.2,0.3-0.3,0.5l21.7,19.4C-60.2,452.2-60.1,452.1-60,451.9z"/>
	<path class="st0" d="M-153.4,446.4c-0.2-0.1-0.4-0.2-0.6-0.3l-16.7,7.4l-0.5,0.2l-2.2,1l0.2,0.5l2.2-1l0.5-0.2L-153.4,446.4z"/>
	<path class="st0" d="M-146.5,465.9c-0.1-0.1-0.2-0.3-0.4-0.4l-10.3,9.1l-0.4,0.4l-1.8,1.6l0.2,0.2l0.2,0.2l1.8-1.6l0.4-0.4
		L-146.5,465.9z"/>
	<path class="st0" d="M-55.3,446.8h0.2v0.2v0.1l2.6,1.7c-0.1-0.3-0.2-0.6-0.2-0.8l-25-16.3c0,0,0,0-0.1,0.1
		c-0.1,0.1-0.2,0.2-0.4,0.3l22.6,14.7C-55.4,446.8-55.3,446.8-55.3,446.8z"/>
	<path class="st0" d="M-82.4,415.3c-0.1,0.1-0.3,0.1-0.5,0.2l-2.1,0.7c0.1,0.1,0.3,0.3,0.4,0.4l2.2-0.8
		C-82.3,415.7-82.4,415.5-82.4,415.3z"/>
	<path class="st0" d="M-28.7,396.1c-0.3,0.3-0.6,0.6-0.9,0.9l11.2-4l0.5-0.2l2.2-0.8l-0.2-0.5l-2.2,0.8l-0.5,0.2L-28.7,396.1z"/>
	<path class="st0" d="M-53,411.8c-0.2,0.2-0.3,0.3-0.6,0.4c-0.9,0.5-2.1,0.7-3.5,0.3l-0.4,0.1c-0.1,0.2-0.4,0.5-0.8,0.7l39.1-7.5
		l0.6-0.1l3.5-0.7l0.6-0.1l2.3-0.4l-0.1-0.6l-2.3,0.4l-0.5,0.1L-53,411.8z"/>
	<path class="st0" d="M-16.6,441.9l-12-3.3c-0.1,0.2-0.1,0.4-0.2,0.5l8.1,2.2l0.5,0.1l3.4,0.9l0.5,0.1l2.2,0.6l0.1-0.5l-2.2-0.6
		L-16.6,441.9z"/>
	<path class="st0" d="M-54,457.2c0.3-2.8,0-6.2-1-10.1V447v-0.2h-0.2c0,0-0.1,0-0.2,0.1c-0.6,0.4-2.6,2.4-4,4.3
		c-0.2,0.3-0.4,0.5-0.5,0.8c-0.1,0.2-0.2,0.3-0.3,0.5c-1.3,2.1-2.4,4.7-2.6,7.5c0,0.3,0,0.6,0,0.9c0,1.7,0.4,3.5,1.4,5.4l0.1,0.2
		h0.2c0.1,0,1-0.2,2.2-0.8c0.2-0.1,0.3-0.2,0.5-0.3c0.9-0.6,1.9-1.4,2.7-2.7c0.8-1.3,1.4-2.8,1.7-4.6
		C-54.1,457.7-54.1,457.5-54,457.2z M-55.5,447.6c1.6,6.4,1.4,11.3-0.8,14.6c-1.7,2.6-4.1,3.4-4.8,3.5
		C-65.3,457.1-57.3,449.2-55.5,447.6z"/>
	<path class="st0" d="M-33.7,450h-0.5c-0.1,0-6.2,0.1-11.4,2.5c-0.2,0.1-0.4,0.2-0.6,0.3c-2.6,1.3-4.9,3.2-6.1,5.9
		c-0.1,0.2-0.2,0.4-0.2,0.6c-0.3,0.9-0.5,1.8-0.6,2.9v0.2l0.2,0.1c0,0,0.4,0.2,1.2,0.3c0.7,0.1,1.7,0.2,3-0.1c0.2,0,0.4-0.1,0.7-0.1
		c2.3-0.6,5.2-2,8.6-5.4c0.1-0.1,0.3-0.3,0.4-0.4c1.6-1.7,3.3-3.7,5.1-6.4L-33.7,450z M-34.7,450.6c-8,11.6-14.5,12-16.9,11.7
		c-0.4-0.1-0.7-0.2-0.9-0.2C-51.8,452.1-37.7,450.8-34.7,450.6z"/>
	<path class="st0" d="M-45.2,442.8c0-2.5-0.6-5.4-2-8.7c-0.1-0.2-0.2-0.4-0.3-0.7c-0.2-0.3-0.3-0.7-0.5-1l-0.2-0.3l-0.3,0.3
		c0,0-0.3,0.3-0.6,0.7c-0.1,0.1-0.3,0.3-0.4,0.5c-0.8,1-2,2.7-2.8,4.9c-0.1,0.3-0.2,0.7-0.4,1.1c-0.1,0.2-0.1,0.4-0.1,0.5
		c-0.6,2.2-0.8,4.9,0,8c0.1,0.3,0.2,0.5,0.2,0.8c0.5,1.6,1.2,3.2,2.3,4.9l0.2,0.3l0.2-0.2c0,0,0.9-0.7,1.8-2.1
		c0.1-0.1,0.2-0.3,0.3-0.5c1.1-1.7,2.3-4.4,2.4-7.9C-45.2,443.2-45.2,443-45.2,442.8z M-49.8,453.2c-6.4-10.5,0.2-18.6,1.6-20.2
		C-42.3,445.2-48.5,451.9-49.8,453.2z"/>
	<path class="st0" d="M-37.5,426.9c-0.4-2.1-1.2-4.4-2.6-6.9l-0.1-0.3l-0.2,0.2c-0.1,0.1-3.3,2.1-4.7,6.1c-0.1,0.2-0.1,0.4-0.2,0.5
		c-0.1,0.3-0.2,0.6-0.2,0.9c-0.5,2.1-0.3,4.3,0.3,6.6c0.1,0.2,0.1,0.4,0.2,0.6c0.6,1.6,1.4,3.3,2.5,5l0.2,0.2l0.2-0.2
		c0,0,1.7-1.2,3.1-3.5c0.1-0.2,0.2-0.3,0.3-0.5c1.1-2,1.9-4.8,1.4-8.3C-37.4,427.2-37.5,427-37.5,426.9z M-45.1,427.5
		c0.9-4,3.7-6.4,4.6-7c6.4,11.6-0.4,17.5-1.8,18.6C-44.9,435-45.8,431.1-45.1,427.5z"/>
	<path class="st0" d="M-28.5,408.2l-0.3,0.2c-0.1,0.1-4.6,3.8-6.6,9.4c-0.1,0.2-0.1,0.4-0.2,0.6c-0.8,2.6-1.1,5.5-0.3,8.7
		c0.1,0.2,0.1,0.4,0.2,0.6c0.5,1.4,1.1,2.9,2.1,4.5l0.2,0.2l0.2-0.2c0,0,1.9-1.3,3.6-3.8c0.1-0.2,0.2-0.3,0.3-0.5
		c1.5-2.3,2.8-5.6,2.8-9.8c0-0.2,0-0.4,0-0.6c-0.1-2.6-0.6-5.6-2-9V408.2z M-33.2,431.6c-7.1-11.3,2.7-20.8,4.5-22.5
		C-23.2,423-31.7,430.4-33.2,431.6z"/>
	<path class="st0" d="M-27.1,430.9v-0.4l-0.4,0.1c-0.1,0-5.1,1.4-9.5,5.7c-0.2,0.1-0.3,0.3-0.5,0.5c-1.9,1.9-3.6,4.3-4.7,7.4
		c-0.1,0.2-0.1,0.3-0.2,0.5c-0.5,1.6-0.9,3.4-1.1,5.4v0.3h0.3c0.1,0,3.6-0.4,7.4-2.7c0.2-0.1,0.4-0.2,0.6-0.4
		c2.4-1.7,4.9-4.2,6.5-8.1c0.1-0.2,0.1-0.3,0.2-0.5C-27.8,436.4-27.2,433.9-27.1,430.9z M-27.7,431.3c-0.7,15.6-13,18.2-15.1,18.5
		C-41.7,436.5-30,432-27.7,431.3z"/>
	<path class="st0" d="M-48.1,464.9l-0.3-0.1c0,0-0.5-0.1-1.3-0.3c-1.9-0.3-5.4-0.5-8.3,1.3c-0.2,0.1-0.3,0.2-0.5,0.3
		c-1.8,1.2-3.3,3.3-4,6.6v0.2l0.2,0.1c0,0,1,0.6,2.5,0.9c2.4,0.4,4.5-0.4,6.3-1.8c0.1-0.1,0.3-0.2,0.4-0.4c2.2-1.9,3.9-4.6,4.8-6.6
		L-48.1,464.9z M-59.7,473.3c-1.1-0.2-1.8-0.5-2.1-0.7c1.9-8.2,9-8.1,12-7.6c0.4,0.1,0.7,0.1,0.9,0.2
		C-52.7,472.7-56.9,473.8-59.7,473.3z"/>
	<path class="st0" d="M-70.2,464c-0.5,0.8-1,1.6-1.4,2.6c-0.9,2.6-0.5,5.3,1.1,8.3l0.1,0.2h0.2c0.1,0,2.8-0.4,4.7-3.1
		c0-0.1,0.1-0.1,0.1-0.2c0.1-0.1,0.1-0.2,0.2-0.3c1.6-2.7,1.8-6.6,0.5-11.6l-0.1-0.3l-0.3,0.1c-0.2,0.1-2.8,1.3-4.8,3.8
		C-70,463.6-70.1,463.8-70.2,464z M-65.1,460.3c1.2,4.8,0.9,8.5-0.8,11.1c-1.5,2.2-3.6,2.8-4.3,3c-1.4-2.7-1.7-5.3-0.9-7.6
		C-69.8,463-66.2,460.9-65.1,460.3z"/>
	<path class="st0" d="M-75.4,471.7c-0.2,0.3-0.4,0.5-0.6,0.8c-1,1.6-1.8,4.1,0.3,7.1l0.1,0.2l0.2-0.1c0.1,0,1.3-0.8,2.3-2.2
		c0.1-0.2,0.2-0.4,0.4-0.6c0.2-0.5,0.4-1,0.5-1.6c0.3-1.6-0.3-3.2-1.7-4.8l-0.1-0.1h-0.1c-0.2,0-0.6,0.3-1,0.8
		C-75.2,471.4-75.3,471.5-75.4,471.7z M-72.8,475.2c-0.3,2-2.1,3.4-2.7,3.8c-2.6-4.1,0.5-7.2,1.3-8C-73,472.5-72.5,473.9-72.8,475.2
		z"/>
	<path class="st0" d="M-66.9,482.2l-0.3-0.2c-0.1-0.1-1.9-1.7-4.4-2.1h-0.1c-0.2,0-0.3,0-0.5-0.1c-1.8-0.2-3.5,0.4-5,1.5l-0.3,0.2
		l0.2,0.2c0.1,0.1,1.8,1.7,4.3,2.1c0.8,0.1,1.5,0.1,2.3,0c0.2,0,0.4-0.1,0.6-0.1c1-0.2,1.9-0.7,2.9-1.3L-66.9,482.2z M-76.6,481.5
		c1.5-1,3.1-1.4,4.8-1.2c1.9,0.3,3.4,1.3,4,1.8c-1.6,1-3.3,1.4-5,1.1C-74.7,482.9-76.1,481.9-76.6,481.5z"/>
	<path class="st0" d="M-57.9,476.8l0.3-0.2l-0.3-0.2c-0.2-0.1-2.2-1.5-4.9-1.9c-0.2,0-0.3,0-0.5-0.1c-0.2,0-0.5,0-0.7-0.1
		c-2.9-0.1-5.5,1.1-7.5,3.5l-0.1,0.2l0.1,0.2c0.1,0.1,1.5,2.1,4.4,2.5c1.9,0.3,3.9-0.2,6-1.4c0.2-0.1,0.3-0.2,0.5-0.3
		C-59.8,478.4-58.9,477.7-57.9,476.8z M-71,478c2.2-2.5,4.9-3.5,8-3c2.1,0.3,3.7,1.2,4.4,1.6c-3.1,2.7-5.9,3.9-8.6,3.5
		C-69.3,479.8-70.6,478.5-71,478z"/>
	<path class="st0" d="M-77.3,479.9c0-0.1-0.1-0.2-0.3-0.3c-0.4-0.1-1.9,0.3-3.7,1.6c-0.2,0.1-0.3,0.2-0.5,0.3
		c-1.9,1.3-4.2,3.5-6.4,6.7c-1.2,1.7-1.7,3.3-1.8,4.4c0,0.4,0,0.7,0.1,1c0,0.1,0,0.2,0.1,0.2c0.1,0.3,0.4,0.5,0.7,0.6
		c0.6,0.1,1.2-0.4,1.7-1.5l0.4-0.8c1.4-2.8,2.8-5.4,5.7-8.5c0.1-0.2,0.3-0.3,0.5-0.5c1-0.9,2.1-1.9,3.4-3
		C-77.3,480.2-77.2,480-77.3,479.9z M-89.1,494c-0.1,0-0.2-0.2-0.3-0.3c-0.4-0.8,0-2.8,1.6-5.1c3.8-5.7,7.8-7.7,9.4-8.2
		c-5.5,4.5-7.3,8.1-9.1,11.6l-0.4,0.8C-88.4,493.7-88.8,494-89.1,494z"/>
	<path class="st0" d="M-29.2,412.9l-0.5,0.1c0,0.1,2.4,9.7-3,15.1l0.4,0.4C-26.7,422.9-29.2,413-29.2,412.9z"/>
	<path class="st0" d="M-29.6,435.8l-0.5-0.2c0,0.1-3.1,9.1-10.5,11.5l0.2,0.5C-32.9,445.2-29.7,435.9-29.6,435.8z"/>
	<path class="st0" d="M-38.4,452.8l-0.4-0.3c0,0.1-4,5.3-8.7,7.3l0.2,0.5C-42.5,458.3-38.5,453.1-38.4,452.8z"/>
	<path class="st0" d="M-39.4,428.2H-40c0,0-0.3,4.9-2.2,7.3l0.4,0.3C-39.6,433.3-39.4,428.4-39.4,428.2z"/>
	<path class="st0" d="M-48.1,442.1c0,0.1-0.1,5.4-2,7.4l0.4,0.4c2-2.2,2.1-7.6,2.1-7.8H-48.1z"/>
	<path class="st0" d="M-58,460.4l0.5,0.3c1.8-3.1,1.1-9.1,1-9.4l-0.6,0.1C-57.1,451.5-56.3,457.5-58,460.4z"/>
	<path class="st0" d="M-51.9,466.9l-0.5-0.3c0,0-2,3.5-4.5,4.4l0.2,0.5C-54,470.5-52,467-51.9,466.9z"/>
	<path class="st0" d="M-68.6,471.1l0.4,0.4c2.4-2.3,2.3-6.4,2.3-6.5h-0.6C-66.5,465.1-66.4,469-68.6,471.1z"/>
	<path class="st0" d="M-61.8,477.2l-0.3-0.5c0,0-2,1.3-3.6,1.5l0.1,0.6C-63.9,478.6-61.9,477.3-61.8,477.2z"/>
	<path class="st2" d="M-75,476.5L-75,476.5L-75,476.5z"/>
	<path class="st0" d="M-74.8,474.3c0,0,0.2,1.1-0.5,2l0.2,0.2l0,0l0.2,0.2c0.8-1.1,0.6-2.4,0.6-2.4H-74.8z"/>
	<path class="st0" d="M-71.1,482.1l-0.1-0.6c0,0-1,0.1-2.1-0.2l-0.1,0.5c0.2,0.1,0.5,0.1,0.7,0.1C-71.8,482.1-71.1,482.1-71.1,482.1
		z"/>
	<path class="st0" d="M-138.9,447.9c0.7-2.7,0.4-5.5-0.2-7.9c0-0.2-0.1-0.4-0.1-0.5c-0.1-0.3-0.2-0.6-0.3-0.9
		c-0.7-2.3-2.1-4.9-2.5-5.3l-0.1-0.1h-0.2l-0.1,0.2c0,0,0,0,0,0.1c-2.2,3.4-3.5,6.5-4.1,9.3c0,0.2-0.1,0.4-0.1,0.7
		c-0.3,1.8-0.2,3.4,0.2,4.9c0.4,1.4,1,2.5,1.7,3.3c0.1,0.2,0.2,0.3,0.4,0.4c0.9,1,1.8,1.5,1.9,1.5l0.2,0.1l0.1-0.1
		c1.5-1.5,2.5-3.1,3-4.8C-139.1,448.5-139,448.2-138.9,447.9z M-142.2,434c1.2,2.1,6.4,12.1-0.2,19c-0.6-0.4-2.6-1.8-3.5-4.8
		C-146.9,444.4-145.7,439.6-142.2,434z"/>
	<path class="st0" d="M-150.5,447.4c0.8,0.1,1.2,0.1,1.2,0.1h0.2v-0.2c0.3-1.1,0.4-2.1,0.3-3c0-0.2,0-0.4-0.1-0.6
		c-0.3-3-1.9-5.5-4-7.5c-0.2-0.2-0.3-0.3-0.5-0.4c-4.3-3.8-9.9-5.8-10-5.9l-0.5-0.2l0.1,0.5c0.9,3,1.9,5.5,2.9,7.6
		c0.1,0.2,0.2,0.3,0.3,0.5c2.2,4.2,4.5,6.5,6.5,7.7c0.2,0.1,0.4,0.2,0.6,0.3C-152.2,447-151.2,447.3-150.5,447.4L-150.5,447.4z
		 M-149.5,446.9c-0.2,0-0.5,0-0.9-0.1l0,0c-2.4-0.4-8.5-2.7-12.5-16.3C-160.1,431.7-147.1,437.3-149.5,446.9z"/>
	<path class="st0" d="M-150.7,435.7c0.5,1.6,1.1,2.5,1.1,2.6l0.2,0.3l0.2-0.2c1.6-1.3,2.8-2.7,3.7-4.1c0.2-0.2,0.3-0.5,0.5-0.7
		c1.6-2.6,2.3-5.2,2.4-7.6c0-0.2,0-0.4,0-0.6c0.1-2.9-0.6-5.3-1.2-6.7c-0.1-0.2-0.2-0.4-0.2-0.6c-0.2-0.5-0.4-0.8-0.4-0.8l-0.2-0.3
		l-0.3,0.3c-0.3,0.3-0.5,0.5-0.8,0.8c-0.2,0.2-0.3,0.4-0.5,0.5c-2.4,2.7-3.8,5.3-4.6,7.7c-0.1,0.2-0.1,0.4-0.2,0.6
		c-1,3.4-0.7,6.2-0.1,8.2C-150.8,435.3-150.8,435.5-150.7,435.7z M-144.7,417.9c0.4,0.9,1.4,3.3,1.5,6.4c0.2,5.1-1.8,9.6-6.2,13.3
		c-0.4-0.7-1.4-2.7-1.6-5.6C-151,428.7-150.1,423.6-144.7,417.9z"/>
	<path class="st0" d="M-154.4,418.3c0.6,2.6,1.9,4.2,1.9,4.2l0.2,0.2l0.2-0.2c1.6-1.3,2.9-2.6,3.9-4c0.1-0.2,0.3-0.4,0.4-0.5
		c1.3-2,2.1-4,2.3-6.2c0-0.3,0-0.6,0.1-0.9c0-0.2,0-0.4,0-0.6c-0.1-4.2-2.5-7.1-2.6-7.2l-0.2-0.2l-0.2,0.2c-2.2,2-3.6,3.9-4.6,5.8
		c-0.1,0.2-0.2,0.3-0.3,0.5c-1.6,3.2-1.7,6.1-1.2,8.4C-154.5,417.9-154.5,418.1-154.4,418.3z M-146,411.8c-0.4,3.6-2.4,7-6.2,10.2
		c-1-1.4-5.6-9.3,4-18.3C-147.6,404.5-145.6,407.7-146,411.8z"/>
	<path class="st0" d="M-158.8,412.6l0.2,0.2l0.2-0.2c1.4-1.1,2.5-2.4,3.4-3.6c0.1-0.2,0.2-0.3,0.3-0.5c1.8-2.7,2.4-5.6,2.4-8.3
		c0-0.2,0-0.4,0-0.6c-0.2-6-3.4-10.9-3.4-11l-0.3-0.3l-0.2,0.3c-2.3,2.8-3.8,5.5-4.7,7.9c0,0.2-0.1,0.4-0.1,0.5
		c-1.3,4-1,7.5-0.3,10.2c0.1,0.2,0.1,0.4,0.2,0.6C-160.2,410.8-158.9,412.5-158.8,412.6z M-156,389.2c1.3,2.1,7.7,14.2-2.6,22.8
		c-0.5-0.7-2-3.1-2.6-6.6C-161.8,401.6-161.4,395.8-156,389.2z"/>
	<path class="st0" d="M-154.5,433.1l0.1-0.3c0.5-2,0.7-3.8,0.6-5.5c0-0.2,0-0.4,0-0.6c-0.1-3.3-1-6.1-2.2-8.5
		c-0.1-0.2-0.2-0.4-0.3-0.6c-2.9-5.4-7.3-8.2-7.3-8.3l-0.4-0.2l-0.1,0.4c-0.8,2.9-1.1,5.5-1,7.8c0,0.2,0,0.4,0,0.6
		c0.3,4.2,1.8,7.4,3.7,9.7c0.1,0.2,0.3,0.3,0.4,0.5c2.8,3.4,6.1,4.9,6.2,4.9L-154.5,433.1z M-160.9,427.4c-2.6-3.2-5.1-8.8-2.8-17.3
		c1.9,1.4,11.7,9.2,8.8,22.2C-155.8,431.8-158.6,430.3-160.9,427.4z"/>
	<path class="st0" d="M-146.1,460.4L-146.1,460.4c1.5,0.2,2.6-0.1,2.7-0.1l0.2-0.1V460c0.3-3.4-0.5-5.8-1.8-7.6
		c-0.1-0.2-0.2-0.3-0.4-0.4c-2.2-2.5-5.5-3.4-7.4-3.7c-0.8-0.1-1.3-0.1-1.3-0.1h-0.3v0.3c0.3,2.2,1,5.2,2.6,7.7
		c0.1,0.2,0.2,0.3,0.3,0.5C-150.4,458.6-148.6,460-146.1,460.4z M-152.9,449c3,0.5,9.9,2.5,9.2,10.9c-0.4,0.1-1.2,0.2-2.3,0l0,0
		c-2.9-0.4-6.5-2.7-7.8-11C-153.7,448.9-153.3,448.9-152.9,449z"/>
	<path class="st0" d="M-133.4,453.5c-1.2-2.9-3.3-4.9-3.4-5l-0.2-0.2l-0.2,0.3c-2.7,4.3-3.7,8-3,11.1c0,0.2,0.1,0.3,0.1,0.5v0.1
		c1,3.2,3.5,4.4,3.6,4.4l0.2,0.1l0.1-0.1c2.4-2.3,3.6-4.8,3.5-7.5c0-1.1-0.2-2.1-0.5-3C-133.3,453.8-133.4,453.7-133.4,453.5z
		 M-136.5,464c-0.6-0.3-2.4-1.6-3.2-4.1c-0.9-3,0-6.6,2.7-10.8c0.9,0.9,3.7,4,3.7,7.9C-133.2,459.5-134.3,461.9-136.5,464z"/>
	<path class="st0" d="M-130.9,462.4c-0.3-0.5-0.5-0.9-0.7-0.9h-0.1l-0.1,0.1c-1.8,1.1-2.8,2.5-3,4.1c-0.1,0.5-0.1,1,0,1.5
		c0,0.2,0.1,0.5,0.2,0.7c0.5,1.6,1.5,2.8,1.5,2.9l0.2,0.2l0.2-0.2c2.9-2.2,2.9-4.9,2.4-6.7c-0.1-0.3-0.2-0.7-0.4-1
		C-130.7,462.8-130.8,462.6-130.9,462.4z M-134.2,465.7c0.2-1.4,1.1-2.6,2.6-3.6c0.6,1,2.6,4.9-1.2,8
		C-133.3,469.5-134.5,467.7-134.2,465.7z"/>
	<path class="st0" d="M-131.9,473.2l0.3-0.1l-0.2-0.3c-1.1-1.6-2.6-2.6-4.4-3c-0.1,0-0.3-0.1-0.4-0.1c-0.1,0-0.2,0-0.2,0
		c-2.5-0.3-4.7,0.6-4.8,0.7l-0.3,0.1l0.2,0.3c0.7,0.8,1.4,1.5,2.3,2c0.2,0.1,0.3,0.2,0.5,0.3c0.7,0.4,1.5,0.6,2.3,0.8
		C-134.1,474.2-132,473.2-131.9,473.2z M-136.6,473.3c-1.7-0.3-3.2-1.1-4.5-2.6c0.7-0.3,2.4-0.8,4.3-0.5c1.7,0.3,3.1,1.1,4.2,2.6
		C-133.1,473-134.7,473.5-136.6,473.3z"/>
	<path class="st0" d="M-141.1,469.1c2.8,0.4,4.8-1,4.9-1.1l0.2-0.1l-0.1-0.2c-1.2-2.9-3.3-4.8-6.2-5.6c-0.2-0.1-0.4-0.1-0.7-0.2
		c-0.1,0-0.3-0.1-0.4-0.1c-2.8-0.4-5.2,0.3-5.3,0.3l-0.3,0.1l0.2,0.3c0.6,1.1,1.3,2,1.9,2.8c0.1,0.1,0.2,0.3,0.4,0.4
		C-144.9,467.7-143.1,468.8-141.1,469.1L-141.1,469.1z M-143.5,462.5c3.2,0.5,5.4,2.3,6.7,5.3c-0.5,0.3-2.2,1.2-4.3,0.8
		c-2.6-0.4-5-2.4-7.1-5.9C-147.4,462.5-145.5,462.1-143.5,462.5z"/>
	<path class="st0" d="M-127.6,474.3c-0.1-0.2-0.3-0.3-0.4-0.5c-1.4-1.7-2.6-2.5-3-2.5c-0.2,0-0.3,0.1-0.4,0.1
		c-0.1,0.1-0.1,0.2,0,0.5c0.9,1.3,1.6,2.6,2.2,3.7c0.1,0.2,0.2,0.4,0.3,0.6c2,3.9,2.4,6.8,2.9,9.9l0.2,0.9c0.2,1.2,0.6,1.9,1.2,2
		l0,0c0.2,0,0.5-0.1,0.7-0.2l0.1-0.1c0.3-0.3,0.5-1,0.6-1.7c0.1-1.1,0-2.5-0.5-4.1C-124.6,478.9-126.2,476.2-127.6,474.3z
		 M-124.4,488.5c-0.2,0-0.6-0.5-0.7-1.5l-0.2-0.9c-0.6-3.9-1.3-7.8-5.1-13.8c1.4,1,4.5,4.1,6.4,10.7c0.8,2.7,0.5,4.7-0.1,5.4
		C-124.1,488.4-124.2,488.5-124.4,488.5z"/>
	<path class="st0" d="M-158.4,408.8l0.5-0.3c-0.1-0.1-0.1-0.3-0.2-0.4c-2.7-5.7,0.5-12.4,1.6-14.3c0.2-0.3,0.3-0.5,0.3-0.5l-0.2-0.1
		l0,0l-0.2-0.1C-156.7,393.1-162.1,401.8-158.4,408.8z"/>
	<path class="st0" d="M-156.6,429.6l0.3-0.5c-0.1-0.1-0.3-0.2-0.4-0.3c-4.9-3.9-5.9-10.9-6-13.2c0-0.4,0-0.7,0-0.7h-0.3l0,0h-0.3
		C-163.3,415.1-163.1,424.9-156.6,429.6z"/>
	<path class="st0" d="M-154.3,442.5c-2.3-2.4-3.9-5.7-4.7-7.5c-0.4-0.8-0.5-1.4-0.5-1.4l-0.5,0.2c0.1,0.3,2.2,6.4,6.2,9.9l0.2-0.2
		l0,0l0.2-0.2C-153.8,443-154.1,442.8-154.3,442.5z"/>
	<path class="st0" d="M-151.5,412.3c0.1-0.9,0.3-1.4,0.3-1.4l-0.5-0.1c-0.1,0.2-1.3,4.9-0.2,8l0.3-0.1l0,0l0.3-0.1
		c-0.1-0.3-0.2-0.6-0.2-0.9C-151.9,415.8-151.7,413.7-151.5,412.3z"/>
	<path class="st0" d="M-148.5,434.5l0.5-0.2c-0.1-0.2-0.2-0.4-0.2-0.7c-0.5-1.7-0.1-4.2,0.3-5.7c0.2-0.8,0.3-1.3,0.3-1.3l-0.3-0.1
		l0,0l-0.3-0.1C-148.2,426.6-149.7,431.8-148.5,434.5z"/>
	<path class="st0" d="M-143.7,447.1c-0.1-0.2-0.1-0.5-0.1-0.8c-0.2-2.3,0.8-5.1,1.4-6.8c0.3-0.8,0.5-1.3,0.6-1.3l-0.3-0.1l0,0
		l-0.3-0.1c-0.1,0.2-2.6,5.7-1.9,9.2l0.3-0.1l0,0H-143.7z"/>
	<path class="st0" d="M-148.3,457.2l0.3-0.4c-0.2-0.2-0.4-0.4-0.6-0.6c-1-1.1-1.7-2.7-2-3.8c-0.2-0.7-0.4-1.2-0.4-1.2l-0.5,0.1
		C-151.5,451.5-150.6,455.5-148.3,457.2z"/>
	<path class="st0" d="M-137.2,459.9c-0.7-1.8-0.4-3.9-0.1-5c0.1-0.5,0.2-0.8,0.2-0.8l-0.5-0.2c-0.1,0.2-1.4,4,0.2,6.9l0.2-0.1l0,0
		l0.2-0.1C-137,460.3-137.1,460.1-137.2,459.9z"/>
	<path class="st0" d="M-145,464L-145,464l-0.2,0.2c0.1,0.1,1.6,2,3.2,2.7l0.1-0.3l0,0l0.1-0.3c-1.4-0.6-2.9-2.5-2.9-2.5L-145,464z"
		/>
	<path class="st0" d="M-132,465.4l-0.5-0.3c0,0-0.6,1.2-0.2,2.5l0.5-0.2C-132.5,466.4-132,465.4-132,465.4z"/>
	<path class="st0" d="M-137.7,471.1l-0.1,0.3l0,0l-0.1,0.3c0,0,0.7,0.3,1.6,0.4c0.2,0,0.4,0.1,0.7,0.1v-0.6
		C-136.7,471.5-137.7,471.1-137.7,471.1z"/>
	<path class="st0" d="M-124.2,405.6c0.2,0.7,1,2.5,3.6,2.4c0.2,0.7,0.8,2.5,3.7,2.6c0.2,0.3,0.6,0.9,1.3,1.2
		c0.6,0.2,1.2,0.2,1.9-0.1c0.3,0.3,0.9,0.8,1.6,0.9c0.1,0,0.2,0,0.2,0c0.4,0,0.7-0.1,1.1-0.2c0.2-0.1,0.4-0.2,0.5-0.3
		c0,0,0.1,0,0.1-0.1c0.1,0.1,0.2,0.2,0.4,0.3c0.3,0.2,0.6,0.4,1,0.5c0.3,0.1,0.6,0.1,0.9,0.1c0.4-0.1,0.7-0.4,1-0.8
		c0.1-0.1,0.2-0.3,0.3-0.5c0,0,0-0.1,0.1-0.1c0.4,0.3,1,0.7,1.7,0.7c0.3,0,0.5-0.1,0.8-0.2c0.2-0.1,0.3-0.2,0.4-0.3l0,0
		c0.3,0.2,1,0.4,1.8,0.5l0,0h0.1l0,0c0.1,0,0.2,0,0.3,0c0-0.2,0-0.4,0-0.6c-1.2,0.1-2.2-0.5-2.2-0.5c-0.1-0.1-0.3,0-0.4,0.1
		c-0.3,0.4-0.6,0.6-1,0.6c-0.8,0-1.6-0.8-1.6-0.8c-0.1-0.1-0.2-0.1-0.3-0.1c-0.1,0-0.2,0.1-0.2,0.2c-0.2,0.9-0.6,1.4-1,1.5
		c-0.7,0.2-1.6-0.6-1.9-1c-0.1-0.1-0.1-0.1-0.2-0.1s-0.2,0-0.2,0.1c-0.5,0.5-1,0.7-1.5,0.7c-0.9,0-1.6-0.9-1.6-0.9
		c-0.1-0.1-0.2-0.1-0.3-0.1c-0.6,0.3-1.1,0.3-1.6,0.1c-0.8-0.3-1.1-1.1-1.1-1.1c0-0.1-0.1-0.2-0.3-0.2c-3.1,0-3.3-2.2-3.3-2.3
		c0-0.1,0-0.1-0.1-0.2c-0.1,0-0.1-0.1-0.2-0.1c-2.9,0.2-3.3-2.1-3.3-2.2c0-0.1-0.1-0.2-0.3-0.2c-2.7,0.1-2.9-1.8-2.9-1.9
		s-0.1-0.2-0.2-0.2c-1.9-0.8-1.9-1.9-1.9-2c0-0.2-0.1-0.3-0.3-0.3c-1.6-0.1-2.7-0.5-3.4-1.3c-0.7-0.8-0.7-1.8-0.7-1.8
		c0-0.1-0.1-0.3-0.2-0.3c-2.8-0.5-3.1-3-3.1-3.2c0-0.1-0.1-0.2-0.2-0.2c-4.1-1.9-3.8-4-3.8-4c0-0.1-0.1-0.3-0.2-0.3
		c-3.9-0.9-3.8-3.2-3.8-3.3c0-0.2-0.1-0.3-0.3-0.3c-0.9,0-2.2-1.6-2.9-2.5l0.8-0.1c0.1,0,0.2-0.1,0.2-0.3c0-0.1-0.1-0.3-0.2-0.3
		c-0.7-0.1-1.9-1.4-2.6-2.2l1.1,0.1c0.1,0,0.3-0.1,0.3-0.2s0-0.3-0.2-0.3c-1.2-0.5-2.3-2.4-2.9-3.8c3.6,3.8,6.9,5,7.1,5.1
		c0.1,0.1,0.3,0,0.4-0.1c0.1-0.1,0-0.3-0.1-0.4c-4.3-2.3-6.1-5.8-6.8-7.8c2,2.5,4.6,4.7,6.2,6c0.4,0.4,0.9,0.7,1.4,1
		c0.1,0.1,0.3,0,0.4-0.1c0.1-0.1,0-0.3-0.1-0.4c0,0-0.5-0.4-1.3-1c-2.5-2.2-3-5-3-6.4c3.1,5,6.5,7.4,6.7,7.5
		c6.4,5.3,17.9,6.9,18,6.9s0.2,0,0.3-0.1c0.1-0.1,0.1-0.2,0-0.3c-0.9-1.3-1-2.6-0.9-3.4c5.5,7.9,21.7,9.8,25.5,9.8
		c3.1,0,4.2-2.9,4.8-5c-0.2-0.2-0.3-0.4-0.4-0.6l0.5-0.2c0,0,0,0,0,0.1c0.1-0.4,0.2-0.8,0.3-1.1c0.5-1.2,2.1-1,2.5-1H-90l0.1-0.6
		c-0.1,0-0.2,0-0.3,0c-0.8,0-2.2,0.1-2.7,1.4c-0.1,0.3-0.2,0.7-0.4,1.2c-0.4,1.3-0.9,3.1-2,4.2c-0.2,0.2-0.4,0.3-0.6,0.5
		c-0.5,0.3-1.2,0.6-1.9,0.6c-0.5,0-1.1,0-1.9-0.1c-0.2,0-0.4,0-0.6-0.1c-1.2-0.1-2.6-0.3-4.2-0.6c-0.2,0-0.4-0.1-0.6-0.1
		c-1.6-0.3-3.4-0.7-5.2-1.2c-0.2-0.1-0.5-0.1-0.7-0.2c-3-0.9-6.1-2.2-8.5-4c-0.6-0.4-1.1-0.9-1.6-1.3c-0.8-0.8-1.5-1.6-2.1-2.5
		c-0.1-0.1-0.2-0.1-0.3-0.1c-0.1,0-0.2,0.1-0.2,0.2s-0.6,2,0.5,4c-1.1-0.2-3.5-0.6-6.4-1.5c-0.4-0.1-0.7-0.2-1.1-0.3
		c-3.3-1.1-6.9-2.6-9.6-4.9c0,0-3.9-2.7-7-8.2c-0.1-0.1-0.2-0.2-0.3-0.1c-0.1,0-0.2,0.1-0.2,0.2c0,0-0.3,2.8,1.3,5.6
		c-1.6-1.4-3.5-3.3-4.7-5.2c-0.1-0.1-0.2-0.2-0.3-0.1c-0.1,0-0.2,0.2-0.2,0.3c0,0,0.6,3.5,3.5,6.6c-1.2-0.9-2.4-2.1-3.7-3.6
		c-0.1-0.1-0.2-0.1-0.4-0.1c-0.2,0-0.2,0.2-0.1,0.3c0,0.1,0.3,1,0.8,2c0.2,0.4,0.4,0.8,0.6,1.2c0.4,0.7,0.9,1.3,1.4,1.8h-0.8
		c-0.1,0-0.2,0.1-0.3,0.2c0,0.1,0,0.2,0,0.3c0.2,0.2,1.4,1.7,2.5,2.5l-0.3,0.1c-0.1,0-0.2,0.1-0.2,0.2s0,0.2,0,0.3
		c0.2,0.3,2,2.7,3.4,3c0.1,0.7,0.6,2.7,4,3.6c0,0.7,0.5,2.6,4,4.3c0.1,0.6,0.7,2.8,3.3,3.4c0,0.3,0.1,0.9,0.5,1.5
		c0.1,0.1,0.2,0.3,0.3,0.4c0.7,0.8,1.7,1.2,3,1.4c0.2,0,0.3,0,0.5,0.1c0,0.1,0,0.2,0.1,0.3c0.1,0.3,0.3,0.7,0.8,1.1
		c0.3,0.3,0.7,0.5,1.2,0.7C-127.3,403.9-126.7,405.5-124.2,405.6z"/>
	<path class="st0" d="M-89.9,384.3L-89.9,384.3L-89.9,384.3C-89.8,384.3-89.9,384.3-89.9,384.3z"/>
	<path class="st0" d="M-101.6,415.8h0.6c-0.2-11.1,4.7-21,4.8-21.1l-0.5-0.3c0,0.1-3.8,7.7-4.7,17.1c0,0.2,0,0.4,0,0.6
		c0,0,0,0,0,0.1C-101.5,413.3-101.6,414.6-101.6,415.8z"/>
	<path class="st0" d="M-121.1,391.2c1.1,0.8,2.6,1.6,4.4,1.8c0.2,0,0.5,0.1,0.7,0.1v-0.6c-4.8-0.4-7.3-4.3-7.3-4.4
		c0-0.1-0.1-0.1-0.2-0.1c-9.5-1.6-21.5-5.2-21.7-5.3l-0.2,0.5c0.1,0,12,3.6,21.6,5.3c0.1,0.2,0.3,0.5,0.7,0.9c0.2,0,0.4,0,0.6,0v0.6
		h-0.1c0.2,0.2,0.5,0.5,0.8,0.7l0.6-0.1L-121.1,391.2z"/>
	<path class="st0" d="M-122.3,389.5c-0.2,0-0.4,0-0.6,0c-5.2,0-16.1-1-16.3-1v0.6c0.1,0,11.8,1,16.8,1h0.1V389.5z"/>
	<polygon class="st0" points="-121.1,391.2 -121.1,391.2 -121.1,390.7 -121.7,390.7 -134.2,392 -134.1,392.5 	"/>
	
		<rect x="-126.9" y="389.8" transform="matrix(-0.3441 -0.9389 0.9389 -0.3441 -540.4321 411.1124)" class="st0" width="0.6" height="9.1"/>
	
		<rect x="-124.3" y="392.6" transform="matrix(-0.5762 -0.8173 0.8173 -0.5762 -519.4375 523.3225)" class="st0" width="0.6" height="7.5"/>
	
		<rect x="-121.2" y="394.5" transform="matrix(-0.7371 -0.6757 0.6757 -0.7371 -478.558 608.4683)" class="st0" width="0.6" height="5.6"/>
	
		<rect x="-118.7" y="395.6" transform="matrix(-0.8297 -0.5582 0.5582 -0.8297 -438.7238 661.9634)" class="st0" width="0.6" height="4.6"/>
	
		<rect x="-118.2" y="398.7" transform="matrix(-0.4828 0.8757 -0.8757 -0.4828 177.2592 693.2813)" class="st0" width="4.3" height="0.6"/>
	<path class="st0" d="M-86.6,392.7c-0.1-0.2-0.3-0.5-0.4-0.7c-0.5-1.3-0.5-2.9-0.4-4.2c0-0.5,0-0.9,0-1.3c-0.1-1.6-1.8-2.1-2.4-2.2
		l0,0h-0.1c-0.1,0-0.1,0-0.2,0l0,0l-0.1,0.6c0,0,0,0,0.1,0c0.4,0.1,2,0.4,2.1,1.7c0,0.3,0,0.7,0,1.1l0,0l0.5,0.3
		c-0.1,0.2-0.3,0.3-0.5,0.4c-0.1,2.2,0.1,5.3,3.1,6.3c3.6,1.1,19.6,4.3,27.2-1.6c-0.1,0.7-0.6,2-1.9,3c-0.1,0.1-0.1,0.2-0.1,0.3
		s0.1,0.2,0.2,0.2c0.1,0,11.5,2,19.2-1.1c0.2-0.1,4.2-1.2,8.7-5.1c-0.5,1.4-1.8,3.9-4.8,5.2c-1,0.3-1.6,0.5-1.6,0.5
		c-0.2,0-0.3,0.2-0.2,0.3c0,0.1,0.2,0.2,0.3,0.2c0.6-0.1,1.2-0.3,1.7-0.6c1.9-0.7,5.1-2,7.7-3.8c-1.3,1.7-4.1,4.5-8.8,5.4
		c-0.1,0-0.2,0.2-0.2,0.3s0.1,0.3,0.3,0.2c0.2,0,3.8-0.2,8.3-2.7c-1,1.1-2.5,2.6-3.9,2.7c-0.1,0-0.2,0.1-0.3,0.3
		c0,0.1,0.1,0.3,0.2,0.3l1.1,0.3c-0.9,0.6-2.5,1.4-3.2,1.3c-0.1,0-0.3,0.1-0.3,0.2s0,0.3,0.1,0.3l0.7,0.4c-0.9,0.7-2.7,1.7-3.5,1.5
		c-0.1,0-0.3,0-0.3,0.2c0,0.1-0.7,2.3-4.7,2c-0.1,0-0.3,0.1-0.3,0.2c0,0-0.4,2.1-4.9,2.7c-0.1,0-0.2,0.1-0.2,0.2
		c0,0-1.1,2.4-3.9,2.1c-0.1,0-0.3,0.1-0.3,0.2c0,0-0.2,1-1.2,1.5c-0.9,0.5-2.1,0.6-3.6,0.2c-0.1,0-0.3,0-0.3,0.2
		c0,0-0.4,1.1-2.4,1.2c-0.1,0-0.2,0.1-0.3,0.2c0,0.1-0.8,1.8-3.4,0.9c-0.1,0-0.3,0-0.3,0.1s-1.1,2.1-3.8,1.1c-0.1,0-0.1,0-0.2,0
		c-0.1,0-0.1,0.1-0.1,0.2c0,0.1-0.9,2.1-3.9,1.2c-0.1,0-0.2,0-0.3,0.1c0,0-0.6,0.7-1.4,0.7c-0.5,0-1-0.2-1.5-0.6
		c-0.1-0.1-0.2-0.1-0.3,0c0,0-0.9,0.6-1.8,0.4c-0.5-0.1-0.9-0.5-1.2-1.1c0-0.1-0.1-0.1-0.2-0.1s-0.2,0-0.2,0
		c-0.4,0.2-1.5,0.7-2.1,0.3c-0.4-0.2-0.6-0.8-0.6-1.7c0-0.1,0-0.2-0.1-0.3s-0.2-0.1-0.3,0c0,0-1,0.6-1.8,0.3
		c-0.4-0.1-0.6-0.4-0.8-0.8c0-0.1-0.2-0.2-0.3-0.2c0,0-1.1,0.2-2.2-0.2c0,0.2-0.1,0.4-0.1,0.6h0.1l0.2-0.2c0.1,0.1,0.3,0.2,0.4,0.4
		c0.5,0.1,0.9,0.1,1.2,0.1c0.1,0,0.2,0,0.3,0c0.1,0.1,0.1,0.3,0.2,0.4c0.2,0.3,0.5,0.5,0.8,0.6c0.5,0.2,0.9,0.1,1.3,0
		c0.2,0,0.4-0.1,0.5-0.2c0,0.2,0,0.4,0.1,0.6c0.1,0.6,0.4,1,0.8,1.2c0.2,0.1,0.3,0.1,0.5,0.2c0.7,0.1,1.5-0.2,1.9-0.4l0,0l0,0
		c0.1,0.2,0.2,0.4,0.4,0.5c0.3,0.3,0.6,0.5,1,0.6c0.1,0,0.2,0,0.2,0.1c0.8,0.1,1.5-0.2,1.8-0.4c0.6,0.5,1.1,0.7,1.8,0.6
		c0.8,0,1.4-0.5,1.6-0.8c2.7,0.8,3.9-0.7,4.3-1.3c2.5,0.9,3.8-0.6,4.2-1.2c2.4,0.7,3.5-0.7,3.8-1.1c0.8,0,1.3-0.2,1.7-0.5
		c0.4-0.2,0.7-0.5,0.8-0.7l0.1-0.1c0.1,0,0.2,0,0.3,0.1c1.4,0.3,2.6,0.2,3.5-0.3c0.2-0.1,0.4-0.3,0.6-0.4c0.4-0.4,0.7-0.9,0.8-1.2
		c2.7,0.2,3.9-1.7,4.2-2.3c3.9-0.6,4.9-2.2,5.1-2.9c3.5,0.3,4.6-1.5,4.9-2.2c1.4,0.1,3.8-1.7,4.1-1.9c0.1-0.1,0.1-0.1,0.1-0.2
		s-0.1-0.2-0.1-0.2l-0.3-0.2c1.3-0.4,2.9-1.4,3.2-1.6c0.1-0.1,0.1-0.2,0.1-0.3s-0.1-0.2-0.2-0.2l-0.7-0.2c0.8-0.3,1.5-0.9,2.2-1.5
		c0.3-0.3,0.6-0.6,0.9-0.9c0.7-0.7,1.1-1.4,1.2-1.4c0.1-0.1,0.1-0.3,0-0.4s-0.2-0.1-0.4,0c-1.7,1-3.2,1.8-4.6,2.3
		c3.7-2.1,5.3-5.2,5.3-5.3c0.1-0.1,0-0.3-0.1-0.3c-0.1-0.1-0.2-0.1-0.4,0c-1.8,1.5-4.1,2.7-6.1,3.6c2.4-2.2,3-4.9,3-4.9
		c0-0.1,0-0.2-0.1-0.3c-0.1-0.1-0.2,0-0.3,0c-4.6,4.3-9.1,5.6-9.2,5.7c-3.4,1.4-7.5,1.7-11,1.7c-0.4,0-0.8,0-1.1,0
		c-2.8-0.1-5.1-0.4-6.2-0.5c1.7-1.6,1.7-3.6,1.7-3.7s-0.1-0.2-0.2-0.3c-0.1,0-0.2,0-0.3,0c-1,0.9-2.3,1.6-3.6,2.1
		c-0.5,0.2-1.1,0.4-1.7,0.6c-2.8,0.8-6,1.1-9,1c-0.3,0-0.5,0-0.8,0c-1.8-0.1-3.6-0.2-5.3-0.5c-0.2,0-0.4-0.1-0.6-0.1
		c-1.6-0.2-3-0.5-4.2-0.8c-0.2,0-0.4-0.1-0.6-0.1c-0.6-0.2-1.2-0.3-1.5-0.4C-85.6,393.8-86.2,393.3-86.6,392.7z"/>
	<path class="st0" d="M-87.5,414.2c0-0.2,0.1-0.4,0.1-0.6c2.1-9.2,0.8-17.6,0.8-17.7l-0.6,0.1c0,0.1,1.7,11-1.9,21.6l0.5,0.2
		c0.4-1.1,0.7-2.3,1-3.4l0,0l0,0C-87.5,414.4-87.5,414.3-87.5,414.2z"/>
	<path class="st0" d="M-67.8,400.1l-0.1,0.5c0.2,0.1,0.5,0.1,0.7,0.1c1.8,0.3,3.4,0,4.7-0.4l0.2-0.5l0.5,0.2
		c0.3-0.1,0.7-0.3,0.9-0.4H-61l0.2-0.5c0.2,0.1,0.4,0.1,0.6,0.2c0.4-0.3,0.7-0.5,0.9-0.6c9.6,1.4,22.1,1.6,22.2,1.6v-0.6
		c-0.1,0-12.6-0.2-22.2-1.6c-0.1,0-0.2,0-0.2,0.1C-59.5,398.2-63.1,401.2-67.8,400.1z"/>
	<path class="st0" d="M-60.9,399.6h0.1c4.8,1.6,16.2,4.1,16.3,4.2l0.1-0.5c-0.1,0-10.8-2.4-15.8-4c-0.2-0.1-0.4-0.1-0.6-0.2
		L-60.9,399.6z"/>
	<polygon class="st0" points="-62.4,400.4 -62.4,400.4 -50.4,405.6 -50.1,405.1 -61.7,400.1 -62.2,399.9 	"/>
	
		<rect x="-58.4" y="400.5" transform="matrix(-0.6138 0.7895 -0.7895 -0.6138 226.052 699.4488)" class="st0" width="0.6" height="9.1"/>
	
		<rect x="-64.9" y="405.8" transform="matrix(-0.6035 -0.7973 0.7973 -0.6035 -421.8601 602.4361)" class="st0" width="7.5" height="0.6"/>
	
		<rect x="-67.2" y="405.8" transform="matrix(-0.4183 -0.9083 0.9083 -0.4183 -460.161 517.4391)" class="st0" width="5.6" height="0.6"/>
	
		<rect x="-67.3" y="403.6" transform="matrix(0.9603 -0.2789 0.2789 0.9603 -115.8633 -2.5792)" class="st0" width="0.6" height="4.6"/>
	
		<rect x="-71.7" y="406" transform="matrix(-0.2201 -0.9755 0.9755 -0.2201 -481.1155 427.8484)" class="st0" width="4.4" height="0.6"/>
	<path class="st0" d="M-92.2,436.7c0.2,0,0.4,0,0.6-0.1c0.1,0,0.1,0,0.2,0c0.6-0.2,1.1-0.5,1.6-1c0.1-0.2,0.3-0.3,0.4-0.5
		c0.1-0.1,0.2-0.3,0.3-0.4c0.4,0.1,1,0.3,1.8,0.2c0.2,0,0.4-0.1,0.6-0.1c0.3-0.1,0.7-0.3,1-0.6c0.2,0.1,0.7,0.3,1.3,0.3
		c0.2,0,0.4,0,0.7-0.1c0.1,0,0.2,0,0.3-0.1c0.6-0.2,1.1-0.6,1.6-1.2c0.1-0.1,0.2-0.3,0.3-0.5l0,0c0.6,0.2,2.2,0.5,3.5-0.4
		c0.1-0.1,0.3-0.2,0.4-0.3c0,0,0,0,0.1-0.1c0.6-0.6,0.8-1.2,0.8-1.7c0-0.1,0-0.3-0.1-0.4c0.3,0,0.7,0,1.1-0.1
		c0.2-0.1,0.5-0.2,0.7-0.3c0.1-0.1,0.2-0.1,0.2-0.2c0.4-0.4,0.6-0.9,0.6-1.5c0-0.4-0.1-0.8-0.3-1.1c-0.1-0.3-0.3-0.5-0.5-0.7
		c-1-1.1-2.5-1.7-2.9-1.8c-0.1-0.2-0.5-0.6-1-1.3c-0.2-0.2-0.3-0.4-0.5-0.6c-0.4-0.5-1-1.2-1.6-1.9c-0.2-0.2-0.3-0.4-0.5-0.5
		c-0.4-0.4-0.8-0.9-1.3-1.4c-0.2-0.2-0.3-0.3-0.5-0.5c-0.3-0.3-0.7-0.7-1-1.1c-0.1-0.1-0.3-0.3-0.4-0.4c-0.3-0.3-0.6-0.6-0.9-0.9
		c-0.1-0.1-0.3-0.3-0.4-0.4c-0.2-0.2-0.3-0.3-0.5-0.5c-0.1-0.1-0.2-0.2-0.4-0.4l-0.2,0.2l-0.2,0.2l0,0l0,0c6.1,5.7,9,9.8,9.1,9.8
		l0.1,0.1c0,0,3.3,1.1,3.4,3.2c0,0.5-0.1,0.8-0.4,1.1c-0.7,0.6-2,0.4-2.2,0.4l0,0c-0.1,0-0.3,0-0.3,0.2c-0.1,0.1,0,0.3,0.1,0.3
		c0,0,0.2,0.2,0.3,0.5c0,0.4-0.2,0.8-0.7,1.3c-1.3,1.3-3.5,0.5-3.5,0.5c-0.1-0.1-0.3,0-0.4,0.1c-0.4,0.9-1,1.4-1.7,1.6
		c-1.1,0.3-2.1-0.2-2.1-0.2c-0.1-0.1-0.2,0-0.3,0c-1.4,1.3-3.1,0.5-3.1,0.5c-0.1,0-0.1,0-0.2,0s-0.1,0.1-0.2,0.1
		c-0.5,1.1-1.2,1.7-2,2c-1.2,0.4-2.4-0.4-2.4-0.4c-0.1,0-0.1,0-0.1-0.1c-1.4-0.1-2.3-0.5-2.7-1.2c-0.5-0.8-0.2-1.8-0.2-1.8
		c0.1-0.1,0-0.3-0.1-0.3c-0.1-0.1-0.3,0-0.4,0.1c-1.5,1.6-2.8,2.4-3.8,2.2c-1.2-0.2-1.7-1.7-1.7-1.7c-0.1-0.1-0.2-0.2-0.4-0.2
		c-0.8,0.3-1.4,0.2-1.9-0.1c-0.8-0.5-0.9-1.8-0.9-1.8c0-0.1,0-0.2-0.1-0.2s-0.2-0.1-0.2,0c-2.4,0.7-3.6-1-3.7-1.1
		c0-0.1-0.1-0.1-0.2-0.1c-1.8-0.2-2.9-0.7-3.3-1.5c-0.4-0.8,0.1-1.7,0.1-1.7c0-0.1,0-0.2,0-0.2c0-0.1-0.1-0.1-0.2-0.2
		c-0.7-0.3-1.2-0.8-1.3-1.4c-0.3-1.1,0.5-2.4,0.5-2.4c0.1-0.1,0.1-0.2,0-0.3c-0.1-0.1-0.2-0.1-0.3-0.1c0,0-0.6,0.2-1.1,0
		c-0.3-0.2-0.5-0.6-0.6-1.3c-0.2-2,2.8-2.4,2.9-2.4h0.1c4-2,12.1-5.1,12.1-5.2l-0.2-0.4v-0.1l0,0c0,0,0,0-0.1,0l0,0
		c-0.2,0.1-0.5,0.2-1,0.4c-0.2,0.1-0.4,0.1-0.6,0.2c-0.4,0.1-0.8,0.3-1.2,0.5c-0.2,0.1-0.4,0.2-0.6,0.2c-0.5,0.2-1,0.4-1.5,0.6
		c-0.2,0.1-0.4,0.2-0.7,0.3c-0.6,0.3-1.3,0.5-2,0.8c-0.3,0.1-0.5,0.2-0.8,0.3c-1,0.4-1.9,0.9-2.8,1.3c-0.3,0.1-0.6,0.3-0.8,0.4
		c-0.1,0-0.1,0.1-0.2,0.1c-1,0.1-2.7,0.7-3.2,2c-0.1,0.2-0.1,0.4-0.1,0.6c0,0.1,0,0.3,0,0.4c0.1,0.8,0.4,1.4,0.9,1.7
		c0.3,0.2,0.7,0.2,0.9,0.2c0,0.1-0.1,0.1-0.1,0.2c-0.1,0.2-0.1,0.4-0.2,0.6c-0.1,0.5-0.2,1,0,1.6c0.1,0.3,0.3,0.6,0.5,0.9
		c0.1,0.2,0.3,0.3,0.5,0.4c0.1,0.1,0.2,0.2,0.4,0.3c-0.2,0.4-0.4,1.2,0,2c0,0.1,0.1,0.1,0.1,0.2c0.1,0.2,0.2,0.3,0.4,0.4
		c0.6,0.5,1.5,0.9,2.8,1.1c0.1,0,0.2,0,0.3,0c0.1,0.1,0.1,0.2,0.3,0.3c0.4,0.4,1.1,0.9,2,1.1c0.2,0,0.5,0.1,0.8,0.1s0.5,0,0.8-0.1
		c0.1,0.4,0.2,0.9,0.6,1.4c0.1,0.1,0.2,0.3,0.4,0.4l0.1,0.1c0.5,0.3,1.1,0.4,1.8,0.3c0.1,0,0.2,0,0.3-0.1c0,0.1,0.1,0.2,0.2,0.3
		c0.3,0.4,0.7,1,1.4,1.3c0.1,0.1,0.3,0.1,0.4,0.1h0.1c0.6,0.1,1.3-0.1,2-0.5c0.2-0.1,0.5-0.3,0.7-0.5c0.3-0.2,0.6-0.5,0.9-0.8
		c0,0.4,0.1,0.9,0.4,1.4c0.1,0.1,0.2,0.2,0.3,0.3c0.2,0.2,0.3,0.3,0.5,0.4c0.5,0.3,1.1,0.5,1.8,0.6c0.2,0,0.3,0,0.5,0.1l0,0
		c0.2,0.1,0.7,0.4,1.4,0.5C-92.7,436.7-92.4,436.7-92.2,436.7z"/>
	<path class="st0" d="M-77.5,429L-77.5,429L-77.5,429z"/>
	<path class="st0" d="M-91.7,387.9c-0.3-0.1-0.9-0.5-1.1-1c0,0,0,0,0-0.1l-0.5,0.2c0.1,0.2,0.2,0.4,0.4,0.6c0.4,0.5,1.1,0.8,1.1,0.8
		L-91.7,387.9z"/>
	<path class="st0" d="M-89.4,388.2l0.1,0.6c0,0,0.7-0.1,1.3-0.4c0.2-0.1,0.4-0.3,0.5-0.4l-0.5-0.3l0,0
		C-88.3,388-89.1,388.2-89.4,388.2z"/>
	<path class="st0" d="M-91.8,393.8c0,0.1,0.1,0.2,0.2,0.2l0,0c0.1,0,0.3-0.1,0.3-0.2l1.5-3.6c0-0.1,0-0.2-0.1-0.3l-0.8-0.7
		c-0.1-0.1-0.2-0.1-0.3,0l-1.1,0.4c-0.1,0-0.2,0.2-0.2,0.3L-91.8,393.8z M-90.9,389.8l0.5,0.5l-1,2.3l-0.3-2.5L-90.9,389.8z"/>
	<polygon class="st0" points="-97.6,413.2 -97.2,413 -97,411.2 -97.5,411.1 -97.8,412.9 	"/>
	<path class="st0" d="M-97.7,416l0.3-2.2l-0.1,0.1c-0.1,0-0.1,0.1-0.2,0c-0.1,0-0.1,0-0.2-0.1l-0.1-0.1l-0.3,2.2L-97.7,416z"/>
	<path class="st0" d="M-97.7,413.8c0.1,0,0.1,0,0.2,0l0.1-0.1l2-1.3l-0.3-0.5l-1.5,1l-0.3,0.2l-0.3-0.2l-1.1-1.4l-0.4,0.3l1.5,1.8
		l0.1,0.1C-97.8,413.8-97.7,413.8-97.7,413.8z"/>
	<path class="st0" d="M-91.6,414.8c-0.1,0-0.1,0-0.2-0.1l-0.1-0.1l-0.3,2.2l0.6,0.1l0.3-2.2l-0.1,0.1
		C-91.5,414.8-91.6,414.8-91.6,414.8z"/>
	<polygon class="st0" points="-91.5,414.1 -91.2,413.9 -90.9,412.2 -91.5,412.1 -91.8,413.8 	"/>
	<path class="st0" d="M-91.9,414.6L-91.9,414.6c0.1,0.2,0.2,0.2,0.3,0.2c0.1,0,0.1,0,0.2,0l0.1-0.1l2-1.3l-0.3-0.5l-1.5,1l-0.3,0.2
		l-0.2-0.3l-1.1-1.4l-0.4,0.3L-91.9,414.6z"/>
	
		<rect x="-111.7" y="418.4" transform="matrix(0.8804 -0.4743 0.4743 0.8804 -211.425 -0.8621)" class="st0" width="8.6" height="0.6"/>
	
		<rect x="-106.1" y="417.1" transform="matrix(-0.6095 -0.7928 0.7928 -0.6095 -504.4103 594.427)" class="st0" width="0.6" height="8.7"/>
	
		<rect x="-104.1" y="421.8" transform="matrix(-0.7004 -0.7137 0.7137 -0.7004 -479.5335 647.6764)" class="st0" width="0.6" height="5.4"/>
	
		<rect x="-92.7" y="424.3" transform="matrix(-0.9981 6.171922e-02 -6.171922e-02 -0.9981 -158.2513 859.4708)" class="st0" width="0.6" height="6"/>
	
		<rect x="-89.3" y="422.4" transform="matrix(-0.9693 0.246 -0.246 -0.9693 -70.3685 861.4925)" class="st0" width="0.6" height="7.9"/>
	
		<rect x="-86.4" y="420.6" transform="matrix(-0.9058 0.4237 -0.4237 -0.9058 16.0604 846.7506)" class="st0" width="0.6" height="9.2"/>
	
		<rect x="-88.3" y="422.9" transform="matrix(0.6018 0.7986 -0.7986 0.6018 304.771 235.1693)" class="st0" width="9.6" height="0.6"/>
	
		<rect x="-102.2" y="425.1" transform="matrix(-0.845 -0.5348 0.5348 -0.845 -416.1433 732.8557)" class="st0" width="0.6" height="3.3"/>
	<polygon class="st0" points="-95.9,369.3 -95.4,369.4 -95.3,369.4 -94.8,368.9 -101.8,367.8 -91.7,355.4 -90.6,358.2 -90.2,357.7 
		-91.6,354.3 -95.3,359 -95.9,359.7 -102.8,368.2 	"/>
	<polygon class="st0" points="-88.8,361.4 -90,358.3 -90.4,358.8 -89.2,361.9 	"/>
	<polygon class="st0" points="-94.6,369.5 -90.7,370.1 -90.3,369.6 -94.2,369 	"/>
	<polygon class="st0" points="-87,366.4 -87.3,366.8 -86,370.3 -85.3,370.4 -86.9,366.4 	"/>
	<polygon class="st0" points="-88.6,362 -89,362.5 -87.7,365.7 -87.2,365.8 -87.2,365.7 	"/>
	<polygon class="st0" points="-83,367.1 -83.2,366.5 -86.6,365.9 -87,366.4 -86.9,366.4 	"/>
	<polygon class="st0" points="-82.6,366.6 -82.3,367.2 -78.4,367.8 -81.5,359.6 -82,360.2 -79.3,367.1 	"/>
	<polygon class="st0" points="-90.6,358.2 -96.1,365 -92.2,365.6 -91.8,365.1 -95.1,364.6 -90.4,358.8 -90,358.3 -85,352.2 
		-82.2,359.5 -81.8,359 -84.7,351.5 -84.9,351.1 -85.3,351.6 -90.2,357.7 	"/>
	<polygon class="st0" points="-87.7,365.7 -91.1,365.2 -91.5,365.7 -87.6,366.3 -87.2,365.8 	"/>
	<polygon class="st0" points="-95.4,372.1 -88.6,373.1 -88.1,373.2 -81.4,374.3 -80.8,374.4 -79.5,374.6 -80.2,372.6 -80.6,371.7 
		-80.6,371.7 -81.2,371.6 -80.3,373.9 -96.1,371.4 -94.6,369.5 -94.2,369 -91.5,365.7 -91.1,365.2 -89,362.5 -88.6,362 -86.1,359 
		-84.7,362.6 -84.3,362.1 -85.9,357.9 -88.8,361.4 -89.2,361.9 -91.8,365.1 -92.2,365.6 -94.8,368.9 -95.3,369.4 -95.4,369.6 
		-95.9,370.3 -97.2,371.8 -95.9,372 	"/>
	<polygon class="st0" points="-82.3,367.2 -82.6,366.6 -84,362.7 -84.4,363.2 -83.2,366.5 -83,367.1 -81.4,371 -80.8,371.1 	"/>
	<path class="st0" d="M-81.8,359l-0.4,0.5l-2.1,2.6l-0.4,0.5l-2.5,3.1l-0.1,0.1l-0.4,0.5l-2.7,3.3l-0.4,0.5l5.6,0.9l3.9,0.6l0.6,0.1
		l0,0l0.6,0.1l7,1.1l-4-10.4l-0.3-0.8l-2.1-5.5L-81.8,359z M-85.3,370.4l-0.6-0.1l-3.7-0.6l2.3-2.9l0.3-0.4l0.4-0.5l2.2-2.7l0.4-0.5
		l2.1-2.6l0.4-0.5l1.9-2.4l5.8,14.9l-6.9-1.1l-0.6-0.1L-85.3,370.4z"/>
	<g>
		<path class="st0" d="M-91.3,328.3c0-0.8,0.6-1,1.1-0.9c0.5,0,1,0.3,0.9,1.1c0,0.8-0.6,1-1.1,0.9C-90.9,329.3-91.4,329-91.3,328.3z
			"/>
		<path class="st0" d="M-82.9,329.9l-1.4-0.2l0.1-0.6l1.4,0.2l0.2-1.4l0.6,0.1l-0.2,1.4l1.4,0.2l-0.1,0.6l-1.4-0.2l-0.2,1.4
			l-0.6-0.1L-82.9,329.9z"/>
		<path class="st0" d="M-75.6,330.5c0.2-0.7,0.7-0.8,1.2-0.7s0.9,0.5,0.7,1.2c-0.2,0.7-0.7,0.8-1.2,0.7
			C-75.3,331.5-75.8,331.2-75.6,330.5z"/>
		<path class="st0" d="M-60.6,333l0.6,0.3l-0.7,2.2l-0.5,1.3l1.5-1.8l0.6,0.2l-0.3,2.3l0.6-1.2l1.1-2l0.6,0.3l-2.2,3.7l-0.7-0.4
			l0.3-2l-1.3,1.6l-0.8-0.3L-60.6,333z"/>
		<path class="st0" d="M-52.7,336.7l2.5,1.3l-0.3,0.5l-1.9-1l-0.6,1.1l1.6,0.9l-0.3,0.5l-1.6-0.9l-0.6,1.2l1.9,1l-0.3,0.5l-2.5-1.3
			L-52.7,336.7z"/>
		<path class="st0" d="M-38.5,346.5l-1.1-0.9l0.4-0.4l2.8,2.2l-0.4,0.4l-1.2-0.9l-2.3,2.9l-0.5-0.4L-38.5,346.5z"/>
		<path class="st0" d="M-32.7,350.6l0.5,0.5l-1.2,1.3l1,1l1.2-1.3l0.5,0.5l-2.9,3.1l-0.5-0.5l1.3-1.4l-1-1l-1.3,1.4l-0.5-0.5
			L-32.7,350.6z"/>
		<path class="st0" d="M-27,356.3l1.9,2.1l-0.4,0.4l-1.4-1.6l-0.9,0.8l1.2,1.4l-0.4,0.4l-1.2-1.4l-1,0.9l1.4,1.6l-0.4,0.4l-1.9-2.1
			L-27,356.3z"/>
		<path class="st0" d="M-17.1,369.2l1.5,2.4l-0.4,0.3l-1.2-1.9l-1.2,0.7l1,1.6l-0.5,0.3l-1-1.6l-1.5,0.9l-0.4-0.6L-17.1,369.2z"/>
		<path class="st0" d="M-12.9,376.2l0.3,0.6l-3.3,1.7l1,1.9l-0.5,0.3l-1.3-2.5L-12.9,376.2z"/>
		<path class="st0" d="M-9.1,384.4l0.3,0.7l-3.4,3l-0.3-0.7l0.8-0.7l-0.6-1.5l-1,0.1l-0.3-0.7L-9.1,384.4z M-11.7,385.2l0.5,1.2
			l0.5-0.4l1.2-1l-1.5,0.1L-11.7,385.2z"/>
		<path class="st0" d="M-6.8,390.6l0.2,0.7l-2,1.4l-1.1,0.7h1.3H-6l0.2,0.7l-4.5-0.2l-0.2-0.7L-6.8,390.6z"/>
		<path class="st0" d="M-6.6,399c1.3-0.3,2.3,0.1,2.5,1.2c0.3,1.2-0.4,1.8-1.8,2.1c-1.3,0.3-2.3-0.1-2.5-1.2S-8,399.3-6.6,399z
			 M-6,401.7c0.7-0.1,1.6-0.4,1.4-1.3c-0.2-0.9-1.2-0.8-1.8-0.6c-0.7,0.1-1.6,0.4-1.4,1.3C-7.6,402-6.7,401.8-6,401.7z"/>
		<path class="st0" d="M-5.7,407.2l2.7-0.3l0.1,0.7l-2.7,0.4c-0.7,0.1-1,0.4-0.9,0.9c0.1,0.6,0.4,0.8,1.1,0.7l2.7-0.3l0.1,0.7
			l-2.7,0.4c-1.1,0.1-1.6-0.3-1.8-1.3C-7.2,407.8-6.8,407.3-5.7,407.2z"/>
		<path class="st0" d="M-2.1,415v1.1c0,1.1-0.4,1.8-1.3,1.8c-0.6,0-1.1-0.4-1.3-1l-1.6,1.4v-0.8l1.5-1.2v-0.6l-1.6,0.1v-0.7
			L-2.1,415z M-4.3,415.7v0.5c0,0.8,0.4,1.1,0.8,1.1s0.8-0.3,0.7-1.1v-0.5H-4.3z"/>
		<path class="st0" d="M-2.6,431.2l-0.2,1.3c-0.1,0.9-0.6,1.5-1.4,1.4c-0.4-0.1-0.7-0.3-0.8-0.7c-0.2,0.4-0.5,0.7-1.1,0.6
			c-0.7-0.1-1.1-0.8-1-1.7l0.2-1.5L-2.6,431.2z M-6.4,431.4l-0.1,0.8c-0.1,0.7,0.2,0.9,0.5,1c0.4,0.1,0.7-0.2,0.8-0.8l0.1-0.8
			L-6.4,431.4z M-4.5,431.6l-0.1,0.6c-0.1,0.7,0.1,1,0.5,1c0.3,0,0.7-0.2,0.7-0.8l0.1-0.6L-4.5,431.6z"/>
		<path class="st0" d="M-3.9,439.2l-0.2,1.1c-0.2,1.1-0.8,1.7-1.7,1.5c-0.6-0.1-1-0.7-1-1.2l-1.9,0.9l0.2-0.8l1.8-0.8l0.1-0.5
			l-1.5-0.3l0.1-0.6L-3.9,439.2z M-6.1,439.4l-0.1,0.5c-0.2,0.8,0.1,1.1,0.5,1.2c0.5,0.1,0.8-0.1,1-0.9l0.1-0.5L-6.1,439.4z"/>
		<path class="st0" d="M-5.9,447.1l-0.8,2.7l-0.5-0.2l0.6-2.1l-1.2-0.4l-0.6,1.8l-0.5-0.2l0.6-1.8l-1.3-0.4l-0.6,2.1l-0.5-0.2
			l0.8-2.7L-5.9,447.1z"/>
		<path class="st0" d="M-9.4,455.5l0.5-1.3l0.5,0.2l-1.3,3.3l-0.5-0.2l0.5-1.3l-3.4-1.4l0.3-0.6L-9.4,455.5z"/>
		<path class="st0" d="M-11.8,462.2l-0.3,0.6l-1.6-0.8l-0.6,1.2l1.6,0.8l-0.3,0.6l-3.8-2l0.3-0.6l1.7,0.9l0.6-1.2l-1.7-0.9l0.3-0.6
			L-11.8,462.2z"/>
		<path class="st0" d="M-15.7,469.3l-0.6,1c-0.6,0.9-1.3,1.3-2.1,0.8c-0.5-0.3-0.7-1-0.5-1.5l-2.1,0.2l0.4-0.7l1.9-0.1l0.3-0.5
			l-1.3-0.8l0.4-0.6L-15.7,469.3z M-17.9,468.7l-0.3,0.4c-0.4,0.7-0.3,1.1,0.1,1.3c0.4,0.3,0.8,0.2,1.3-0.5l0.3-0.4L-17.9,468.7z"/>
		<path class="st0" d="M-20.2,476.1l-1.7,2.3l-0.5-0.3l1.3-1.7l-1-0.7l-1.1,1.5l-0.5-0.3l1.1-1.5l-1.1-0.8l-1.3,1.7l-0.5-0.3
			l1.7-2.3L-20.2,476.1z"/>
		<path class="st0" d="M-25.3,482.4l-0.6,0.7l-3.5-1.4l0.9,0.8l1.8,1.6l-0.4,0.5l-3.2-2.9l0.6-0.7l3.5,1.4l-0.9-0.8l-1.8-1.6
			l0.4-0.5L-25.3,482.4z"/>
		<path class="st0" d="M-38.1,491.8c0.8,1.1,0.9,2.1,0,2.8c-0.6,0.5-1.4,0.6-2.1-0.2l0.5-0.4c0.4,0.5,0.8,0.5,1.2,0.2
			c0.7-0.6,0.2-1.4-0.2-1.9c-0.5-0.7-1.1-1.2-1.8-0.6c-0.3,0.2-0.4,0.5-0.4,0.8l0.6,0.7l0.8-0.6l0.3,0.4l-1.3,1l-1.4-1.8l0.4-0.3
			l0.3,0.4c0-0.1,0-0.7,0.6-1.1C-39.8,490.3-38.8,490.9-38.1,491.8z"/>
		<path class="st0" d="M-45,496.1l1.5,2.3l-0.6,0.4l-1.5-2.3c-0.4-0.6-0.7-0.7-1.2-0.4c-0.5,0.3-0.5,0.7-0.1,1.3l1.5,2.3l-0.6,0.4
			l-1.5-2.3c-0.6-0.9-0.5-1.6,0.4-2.1C-46.2,495.1-45.6,495.2-45,496.1z"/>
		<path class="st0" d="M-51.3,503.2l-0.6,0.3l-3.3-3l0.6-0.3l0.8,0.7l1.4-0.8l-0.2-1l0.6-0.3L-51.3,503.2z M-52.4,500.7l-1.1,0.6
			l0.4,0.4l1.1,1.1l-0.3-1.5L-52.4,500.7z"/>
		<path class="st0" d="M-57.7,506.4l-1,0.4c-1,0.4-1.8,0.3-2.2-0.5c-0.2-0.6,0-1.2,0.4-1.5l-1.9-1l0.8-0.3l1.7,1l0.5-0.2l-0.6-1.4
			l0.6-0.3L-57.7,506.4z M-59.2,504.7l-0.4,0.2c-0.7,0.3-0.9,0.7-0.7,1.2c0.2,0.4,0.6,0.6,1.3,0.3l0.4-0.2L-59.2,504.7z"/>
		<path class="st0" d="M-66.2,509.7l-0.7,0.2l-2.8-3.6l0.7-0.2l0.6,0.8l1.5-0.5v-1.1l0.7-0.2V509.7z M-66.8,507l-1.2,0.4l0.4,0.5
			l0.9,1.2v-1.5L-66.8,507z"/>
		<path class="st0" d="M-73,511.7l-0.9,0.2l-2-3.2l0.3,1.1l0.5,2.3l-0.6,0.1l-1-4.2l0.9-0.2l2,3.2l-0.3-1.1l-0.5-2.3l0.6-0.1
			L-73,511.7z"/>
		<path class="st0" d="M-82.1,513l1.4-0.2l0.1,0.6l-3.5,0.5l-0.1-0.6l1.4-0.2l-0.5-3.7l0.7-0.1L-82.1,513z"/>
		<path class="st0" d="M-89,514.4l-2.8,0.2V514l2.1-0.1l-0.1-1.2l-1.9,0.1v-0.6l1.9-0.1l-0.1-1.3l-2.1,0.1v-0.6l2.8-0.2L-89,514.4z"
			/>
		<path class="st0" d="M-97.2,514.6l-2.8-0.1v-0.6h2.2v-1.2h-1.9v-0.6h1.9v-1.3h-2.2v-0.6l2.8,0.1V514.6z"/>
		<path class="st0" d="M-113.3,513.1l-2.8-0.5l0.1-0.6l2.1,0.4l0.2-1.2l-1.8-0.4l0.1-0.6l1.8,0.4l0.3-1.3l-2.1-0.4l0.1-0.6l2.8,0.5
			L-113.3,513.1z"/>
		<path class="st0" d="M-120.7,511.4l-0.7-0.2l-0.1-2.4v-1.3l-0.7,1.1l-1.4,2l-0.7-0.2l2.6-3.7l0.7,0.2L-120.7,511.4z"/>
		<path class="st0" d="M-129,508.8l-2.6-1l0.2-0.5l2,0.8l0.4-1.2l-1.7-0.7l0.2-0.5l1.7,0.7l0.5-1.2l-2-0.8l0.2-0.5l2.6,1L-129,508.8
			z"/>
		<path class="st0" d="M-136.4,505.7l-1-0.5c-1-0.5-1.4-1.2-1-2c0.3-0.5,0.9-0.8,1.4-0.7l-0.4-2.1l0.7,0.4l0.3,1.9l0.5,0.2l0.7-1.4
			l0.6,0.3L-136.4,505.7z M-136.1,503.5l-0.4-0.2c-0.7-0.3-1.1-0.2-1.3,0.2s-0.1,0.8,0.6,1.2l0.4,0.2L-136.1,503.5z"/>
		<path class="st0" d="M-143.2,499.2l0.1,3.1l-0.7-0.4v-1.2v-1.2l-1.1,0.6l-1,0.5l-0.6-0.4l2.7-1.3l0.9-1.5l0.6,0.3L-143.2,499.2z"
			/>
		<path class="st0" d="M-156.9,492.6l-1-0.8c-0.8-0.7-1.1-1.5-0.5-2.2c0.6-0.7,1.4-0.6,2.2,0.1l0.5,0.4l1-1.2l0.5,0.4L-156.9,492.6z
			 M-156,490.5l-0.5-0.4c-0.6-0.5-1-0.5-1.3-0.1s-0.3,0.8,0.3,1.3l0.5,0.4L-156,490.5z"/>
		<path class="st0" d="M-162.9,487.1l-0.8-0.8c-0.8-0.8-0.9-1.6-0.3-2.2c0.4-0.4,1.1-0.4,1.6-0.1l0.3-2.1l0.6,0.6l-0.3,1.9l0.4,0.4
			l1.1-1.1l0.5,0.5L-162.9,487.1z M-161.8,485.1l-0.3-0.3c-0.5-0.6-1-0.6-1.3-0.2c-0.3,0.3-0.4,0.8,0.2,1.3l0.3,0.3L-161.8,485.1z"
			/>
		<path class="st0" d="M-166.5,480c-1.1,0.9-2.1,1-2.8,0.1c-0.8-0.9-0.4-1.8,0.6-2.7c1.1-0.9,2.1-1,2.8-0.1
			C-165.2,478.2-165.5,479.2-166.5,480z M-168.3,477.9c-0.5,0.4-1.2,1.1-0.6,1.8c0.6,0.7,1.4,0.2,1.9-0.3c0.5-0.4,1.2-1.1,0.6-1.8
			C-167,477-167.7,477.5-168.3,477.9z"/>
		<path class="st0" d="M-173.4,474.7l-0.7-1.1c-0.8-1.2-0.3-2,0.7-2.7c1-0.7,2-0.9,2.8,0.3l0.7,1.1L-173.4,474.7z M-170.7,472.1
			l-0.3-0.5c-0.6-0.8-1.4-0.4-1.9,0c-0.6,0.4-1.2,1-0.7,1.8l0.3,0.5L-170.7,472.1z"/>
		<path class="st0" d="M-175.3,466.6l-2.4,1.4l-0.3-0.6l2.4-1.4c0.7-0.4,0.8-0.7,0.5-1.2c-0.3-0.5-0.6-0.6-1.3-0.2l-2.4,1.4
			l-0.3-0.6l2.4-1.4c1-0.5,1.6-0.4,2.1,0.5C-174.2,465.4-174.4,466.1-175.3,466.6z"/>
		<path class="st0" d="M-179.5,460.1c-1.3,0.6-2.3,0.3-2.8-0.7c-0.3-0.7-0.3-1.6,0.7-2.1l0.3,0.6c-0.5,0.3-0.7,0.7-0.4,1.2
			c0.4,0.9,1.2,0.6,1.9,0.3c0.7-0.3,1.4-0.8,1-1.7c-0.2-0.5-0.6-0.7-1.2-0.5l-0.3-0.6c1-0.4,1.7,0.1,2,0.9
			C-177.7,458.7-178.2,459.5-179.5,460.1z"/>
		<path class="st0" d="M-184.5,452.1l0.5,1.4l-0.5,0.2l-1.2-3.3l0.5-0.2l0.5,1.4l3.5-1.2l0.2,0.6L-184.5,452.1z"/>
		<path class="st0" d="M-189,438.2l-0.1-0.7l2.2-0.6l1.3-0.3l-2.3-0.3l-0.1-0.6l2.1-1l-1.3,0.1l-2.3,0.2l-0.1-0.7l4.3-0.2l0.1,0.8
			l-1.8,1l2,0.2l0.1,0.8L-189,438.2z"/>
		<path class="st0" d="M-190.2,429.5l-0.2-2.8h0.6l0.2,2.1l1.2-0.1l-0.2-1.8h0.6l0.2,1.9l1.3-0.1l-0.2-2.1h0.6l0.2,2.8L-190.2,429.5
			z"/>
		<path class="st0" d="M-187.4,413.8l0.1-0.7c0.5,0,0.8-0.2,0.8-0.9c0-0.5-0.1-0.9-0.6-1c-0.3,0-0.4,0.2-0.6,0.5l-0.4,0.9
			c-0.2,0.5-0.6,0.9-1.2,0.8c-0.8-0.1-1.1-0.8-1.1-1.6c0.1-0.8,0.4-1.5,1.4-1.4v0.8c-0.6,0-0.8,0.3-0.8,0.8s0.2,0.8,0.5,0.9
			c0.3,0,0.5-0.1,0.6-0.5l0.4-1c0.2-0.5,0.6-0.9,1.1-0.8c0.9,0.1,1.2,0.8,1.2,1.7S-186.4,413.9-187.4,413.8z"/>
		<path class="st0" d="M-189.4,405.2l0.5-2.8l0.6,0.1l-0.4,2.1l1.2,0.3l0.3-1.8l0.6,0.1l-0.4,1.8l1.3,0.2l0.4-2.1l0.6,0.1l-0.5,2.8
			L-189.4,405.2z"/>
		<path class="st0" d="M-187.8,397.3l0.2-0.6l3.6,1l0.6-2.1l0.5,0.1l-0.7,2.8L-187.8,397.3z"/>
		<path class="st0" d="M-185.5,389.5l0.2-0.6l3.5,1.3l0.7-2.1l0.5,0.2l-1,2.7L-185.5,389.5z"/>
		<path class="st0" d="M-175.7,376.5l0.5-0.9l-2.7-1.6l-0.5,0.9l-0.5-0.3l1.4-2.4l0.5,0.3l-0.5,0.9l2.7,1.6l0.5-0.9l0.5,0.3
			l-1.4,2.4L-175.7,376.5z"/>
		<path class="st0" d="M-172.3,369.7l0.4-0.5c0.4,0.2,0.8,0.2,1.2-0.4c0.3-0.4,0.4-0.9,0-1.1c-0.2-0.2-0.5-0.1-0.8,0.1l-0.8,0.6
			c-0.4,0.3-0.9,0.5-1.4,0.1c-0.6-0.4-0.6-1.2-0.2-1.9c0.5-0.7,1.1-1.1,1.9-0.5l-0.4,0.5c-0.5-0.3-0.8-0.1-1.1,0.3
			c-0.3,0.4-0.3,0.8,0,1c0.2,0.2,0.5,0.1,0.8-0.1l0.8-0.6c0.4-0.3,0.9-0.5,1.4-0.2c0.8,0.5,0.7,1.3,0.2,2.1
			C-170.8,369.8-171.5,370.2-172.3,369.7z"/>
		<path class="st0" d="M-163.8,354.4l0.5-0.5l4.1,1.9l-0.5,0.5l-0.9-0.4l-1.1,1.2l0.5,0.9l-0.5,0.5L-163.8,354.4z M-162,356.5
			l0.9-0.9l-0.5-0.3l-1.4-0.6l0.7,1.3L-162,356.5z"/>
		<path class="st0" d="M-156.9,351.7l-1.8-2.1l0.5-0.4l1.8,2.1c0.5,0.6,0.8,0.6,1.3,0.2c0.4-0.4,0.4-0.7,0-1.3l-1.9-2.1l0.5-0.4
			l1.8,2.1c0.7,0.8,0.7,1.5-0.1,2.2C-155.5,352.6-156.2,352.5-156.9,351.7z"/>
		<path class="st0" d="M-151.1,344.3l-1.2,0.8l-0.3-0.5l2.9-2.1l0.3,0.5l-1.2,0.9l2.2,3l-0.6,0.4L-151.1,344.3z"/>
		<path class="st0" d="M-145.6,339.8l0.6-0.3l0.9,1.6l1.2-0.7l-0.9-1.6l0.6-0.3l2.2,3.7l-0.6,0.3l-1-1.6l-1.2,0.7l1,1.6l-0.6,0.3
			L-145.6,339.8z"/>
		<path class="st0" d="M-138.5,335.9l2.5-1.2l0.2,0.5l-1.9,0.9l0.5,1.1l1.7-0.8l0.2,0.5l-1.7,0.8l0.6,1.2l1.9-0.9l0.2,0.5l-2.5,1.2
			L-138.5,335.9z"/>
		<path class="st0" d="M-131.1,332.6l0.9-0.3l2.4,2.9l-0.5-1.1l-0.8-2.2l0.6-0.2l1.5,4l-0.8,0.2l-2.4-2.9l0.5,1.1l0.8,2.2l-0.6,0.2
			L-131.1,332.6z"/>
		<path class="st0" d="M-122.2,330.2l-1.4,0.4l-0.2-0.5l3.4-1l0.2,0.5l-1.4,0.4l1,3.6l-0.6,0.2L-122.2,330.2z"/>
		<path class="st0" d="M-114.8,331.6l1-0.2l-0.6-3.1l-1,0.2l-0.1-0.6l2.7-0.5l0.1,0.6l-1,0.2l0.6,3.1l1-0.2l0.1,0.6l-2.7,0.5
			L-114.8,331.6z"/>
		<path class="st0" d="M-107.6,328.8c-0.1-1.4,0.4-2.3,1.5-2.4c0.8-0.1,1.6,0.2,1.8,1.3l-0.7,0.1c-0.1-0.6-0.5-0.9-1-0.8
			c-0.9,0.1-1,0.9-0.9,1.7s0.3,1.6,1.3,1.5c0.5-0.1,0.9-0.4,0.9-1l0.7-0.1c0.1,1.1-0.7,1.6-1.5,1.6
			C-106.8,330.9-107.4,330.2-107.6,328.8z"/>
	</g>
</g>
</svg>
